<svg width="500" height="500" viewBox="0 0 500 500" fill="none" xmlns="http://www.w3.org/2000/svg">
<path d="M248.78 484.21C376.65 484.21 480.31 426.083 480.31 354.38C480.31 282.677 376.65 224.55 248.78 224.55C120.91 224.55 17.25 282.677 17.25 354.38C17.25 426.083 120.91 484.21 248.78 484.21Z" fill="#407BFF"/>
<path d="M412.5 446.19C424.728 439.463 436.137 431.346 446.5 422L134 241.6C117.003 246.937 100.587 253.972 85 262.6C35.94 290.13 13.51 327 17.77 363L226.66 483.6C293.05 487.18 361.65 474.7 412.5 446.19Z" fill="#407BFF"/>
<path opacity="0.8" d="M412.5 446.19C424.728 439.463 436.137 431.346 446.5 422L134 241.6C117.003 246.937 100.587 253.972 85 262.6C35.94 290.13 13.51 327 17.77 363L226.66 483.6C293.05 487.18 361.65 474.7 412.5 446.19Z" fill="white"/>
<path opacity="0.1" d="M276.86 411.15C304.397 411.15 326.72 398.261 326.72 382.36C326.72 366.46 304.397 353.57 276.86 353.57C249.323 353.57 227 366.46 227 382.36C227 398.261 249.323 411.15 276.86 411.15Z" fill="black"/>
<path opacity="0.1" d="M403.88 372.28C431.417 372.28 453.74 359.39 453.74 343.49C453.74 327.59 431.417 314.7 403.88 314.7C376.343 314.7 354.02 327.59 354.02 343.49C354.02 359.39 376.343 372.28 403.88 372.28Z" fill="black"/>
<path opacity="0.1" d="M214.42 314.64C191.96 301.64 155.54 301.64 133.07 314.64C130.593 316.077 128.25 317.734 126.07 319.59C125.57 319.28 125.07 318.97 124.55 318.67C104.28 306.97 71.4299 306.97 51.1599 318.67C30.8899 330.37 30.8999 349.34 51.1599 361.04C71.4199 372.74 104.28 372.74 124.55 361.04C125.885 360.274 127.176 359.436 128.42 358.53C129.927 359.645 131.496 360.673 133.12 361.61C155.59 374.61 192.01 374.61 214.47 361.61C236.93 348.61 236.89 327.61 214.42 314.64Z" fill="black"/>
<path d="M430.35 323C430.35 323 427.95 309 431.64 296.49C435.33 283.98 442.69 274.74 451.14 271.54C459.59 268.34 468.89 274.27 461.22 282.43C453.55 290.59 438.73 300.94 437.1 323.58L430.35 323Z" fill="#407BFF"/>
<g opacity="0.3">
<path d="M430.35 323C430.35 323 427.95 309 431.64 296.49C435.33 283.98 442.69 274.74 451.14 271.54C459.59 268.34 468.89 274.27 461.22 282.43C453.55 290.59 438.73 300.94 437.1 323.58L430.35 323Z" fill="black"/>
</g>
<path d="M431.86 318.7H431.76C431.697 318.695 431.636 318.677 431.58 318.648C431.525 318.619 431.475 318.579 431.435 318.531C431.395 318.482 431.365 318.426 431.347 318.366C431.329 318.306 431.323 318.242 431.33 318.18C433.93 293.04 448.58 278.6 455.97 274.48C456.025 274.444 456.088 274.42 456.153 274.41C456.217 274.399 456.284 274.402 456.348 274.419C456.412 274.435 456.471 274.464 456.523 274.505C456.575 274.545 456.618 274.596 456.65 274.653C456.682 274.711 456.701 274.775 456.707 274.84C456.713 274.906 456.706 274.972 456.685 275.034C456.664 275.097 456.631 275.154 456.587 275.204C456.543 275.253 456.49 275.292 456.43 275.32C449.2 279.32 434.84 293.53 432.29 318.32C432.266 318.42 432.212 318.51 432.135 318.578C432.058 318.646 431.962 318.688 431.86 318.7Z" fill="white"/>
<path d="M474.63 310.36C473.29 314.27 466.51 314.2 466.69 318.95C466.911 320.199 467.202 321.434 467.56 322.65C468.14 326.53 465.05 329.23 461.63 329.96C458.21 330.69 453.93 328.84 450.75 331.04C448.41 332.66 447.92 335.82 446.8 338.43C446.59 338.928 446.35 339.412 446.08 339.88C444.84 341.983 443.094 343.743 441 345C438.774 346.329 436.196 346.946 433.61 346.77C432.519 346.788 431.447 346.482 430.53 345.89C429.734 345.249 429.171 344.363 428.93 343.37C428.745 342.626 428.635 341.866 428.6 341.1C428.502 340.496 428.355 339.9 428.16 339.32C427.25 335.89 426.92 331.8 424.81 328.86C422.4 325.48 423.81 320.09 426.74 317.46C429.45 314.99 433.51 314.13 435.65 311.15C436.71 309.67 437.16 307.85 438.04 306.26C438.945 304.674 440.255 303.358 441.837 302.446C443.419 301.534 445.214 301.059 447.04 301.07C449.71 301.12 452.2 302.19 454.79 302.7C457.037 303.023 459.321 302.996 461.56 302.62C465.62 302.16 470.69 301.95 473.56 305.5C474.126 306.159 474.519 306.947 474.706 307.795C474.893 308.644 474.867 309.525 474.63 310.36Z" fill="#455A64"/>
<path d="M430.22 339C430.165 338.989 430.113 338.968 430.067 338.936C430.021 338.905 429.981 338.865 429.95 338.819C429.92 338.772 429.898 338.72 429.888 338.665C429.878 338.611 429.878 338.554 429.89 338.5C435.43 312.22 462.54 307.04 468.95 307.16C469.064 307.16 469.174 307.205 469.254 307.286C469.335 307.366 469.38 307.476 469.38 307.59C469.38 307.704 469.335 307.813 469.254 307.894C469.174 307.974 469.064 308.02 468.95 308.02C462.67 307.89 436.16 312.96 430.73 338.68C430.72 338.735 430.698 338.788 430.666 338.835C430.634 338.882 430.593 338.921 430.545 338.951C430.497 338.981 430.444 339.001 430.388 339.009C430.332 339.018 430.275 339.014 430.22 339Z" fill="white"/>
<path d="M459.87 324.23C459.783 324.223 459.701 324.183 459.64 324.12C457.001 322.071 453.943 320.628 450.683 319.894C447.424 319.16 444.043 319.151 440.78 319.87C440.669 319.891 440.554 319.866 440.46 319.803C440.367 319.739 440.302 319.641 440.28 319.53C440.268 319.475 440.268 319.419 440.278 319.364C440.288 319.31 440.309 319.257 440.34 319.211C440.371 319.164 440.411 319.124 440.457 319.093C440.503 319.062 440.555 319.041 440.61 319.03C444.004 318.285 447.52 318.299 450.908 319.07C454.296 319.841 457.472 321.35 460.21 323.49C460.25 323.53 460.282 323.577 460.304 323.63C460.326 323.682 460.337 323.738 460.337 323.795C460.337 323.852 460.326 323.908 460.304 323.96C460.282 324.013 460.25 324.06 460.21 324.1C460.166 324.145 460.113 324.179 460.054 324.202C459.995 324.224 459.933 324.234 459.87 324.23Z" fill="white"/>
<path d="M325.41 194.17C328.483 193.78 331.52 193.141 334.49 192.26C334.49 192.26 329.49 191.26 329.11 189.12C328.65 186.52 331.86 189.01 336.36 188.37C340.36 187.81 343.72 188.53 345.76 187.94L369.35 179.37C369.35 179.37 380.21 155.88 383.3 152.43C386.39 148.98 389.6 148.16 394.23 147.55L391.32 167.15C391.32 167.15 382.96 182.94 380.61 186.79C378.26 190.64 377.38 190.79 371.78 192.65C364.4 195.05 353.04 197.33 346.64 199.39C339.02 201.83 332.07 204.49 327.33 202.63C325.476 201.97 323.917 200.673 322.93 198.97C322.09 197.15 320.46 194.65 325.41 194.17Z" fill="#B16668"/>
<path d="M394.23 147.55C394.23 147.55 388.57 147.88 386.09 149.18C382.91 150.86 380.87 155.35 377.69 161.56C374.51 167.77 371.84 174.07 371.84 174.07C371.84 174.07 378.03 179.88 383.53 181.63L393.05 166.21L394.23 147.55Z" fill="#E0E0E0"/>
<path d="M386.19 327.81L384.87 326.12C384.23 330.02 380.52 334.37 376.98 337.61C374.16 340.18 369.98 343.33 370.06 345.97C370.19 349.11 375.41 349.97 378.06 349.48C381.13 348.94 385.06 347.2 387.24 344.56C388.76 342.69 390.9 340.25 391.98 338.79C393.06 337.33 395.56 335.69 396.14 334C396.46 333.06 396.08 331 395.63 329.3C395.18 327.6 394.77 325.99 394.23 326.13V327.13C393.58 327.85 390.6 328.8 388.58 328.87C387.25 328.9 386.18 328.81 386.19 327.81Z" fill="#263238"/>
<path d="M430.22 333.85C430.648 336.237 430.879 338.655 430.91 341.08C430.99 345.47 431.8 347.02 431.91 350.62C432.03 354.74 431.17 357.3 429.5 359.62C427.83 361.94 422.5 362.88 420.64 358.97C418.78 355.06 419.03 352.51 419.64 348.47C420.25 344.43 420.33 341.99 420.69 338.81C421 336 421.37 333.87 421.37 333.87L430.22 333.85Z" fill="#263238"/>
<path d="M432.07 283.82C431.07 273.24 429.52 268.82 429.32 266.4C429.32 266.4 430.86 243.91 431.49 222.89C431.8 212.77 430.4 204.4 423.09 192.39L387.74 186.79C383.96 200.79 380.16 252.15 381.69 267.29C382.57 276.07 385.23 320.5 385.23 320.5V324C385.123 325.734 384.55 327.406 383.57 328.84C381.984 331.607 380.092 334.186 377.93 336.53C376.947 337.568 376.019 338.656 375.15 339.79C372.97 342.34 374.68 343.4 378.04 342.95C381.59 342.48 384.56 339.73 386.12 337.57C388.45 334.35 393.73 329.17 394.12 327.31V327.09C394.12 327.09 394.33 324.29 394.62 320.93C394.91 317.57 400.41 290.38 400.53 280.62C400.43 276.743 400.042 272.879 399.37 269.06L403.22 233.34C403.22 233.34 409.22 258.93 410.61 269.78C411.8 279.19 416.9 306.96 419.75 319.48C420.814 324.184 421.325 328.997 421.27 333.82C421.27 335.21 420.81 346.32 421.27 349.46C422.15 356.02 427.98 355.46 429.12 350.2C430.12 345.75 430.12 335.51 430.18 333.81C430.18 332.58 430.28 331.21 430.35 329.75C430.48 328.89 433.26 296.15 432.07 283.82Z" fill="#B16668"/>
<path d="M386.33 193.66C385.42 199.81 383.84 207.95 382.45 221.78C381.159 235.651 380.602 249.58 380.78 263.51C381.05 272.31 381.72 280.01 381.72 280.01C381.72 280.01 389.43 286.52 406.85 286.87C424.27 287.22 432.37 281.19 432.37 281.19L430.14 266.44C430.14 266.44 432.25 232.27 432.37 220.54C432.49 208.81 428.78 200.44 423.09 192.39L386.33 193.66Z" fill="#455A64"/>
<path d="M413 147.9L419.25 148.17C417.4 159.17 425.79 169.05 425.79 169.05L422.33 186.46C422.52 186.76 421.81 189.25 423.12 192.39C417.12 200.46 393.12 201.39 386.36 193.66C386.73 190.43 387.02 188.23 387.1 186.31L385.58 177.2C376.34 167.55 387.25 153.96 394.26 147.55L400.72 147.08L413 147.9Z" fill="#F5F5F5"/>
<path d="M398.36 161.33C406.54 161.95 412.91 153.24 413.91 148.02L419.22 148.17L426.84 171.65C426.84 171.65 424.16 181.82 423.23 185.45C422.844 186.828 422.754 188.273 422.968 189.688C423.182 191.103 423.694 192.457 424.47 193.66C426.61 197.051 428.486 200.601 430.08 204.28C430.08 204.28 426.55 207.28 417.08 209.28C411.715 210.305 406.227 210.514 400.8 209.9L399.15 198.74L396.1 209.05C396.1 209.05 389.16 208.49 384.1 204.76L387.1 186.27L385.85 178.75C385.85 178.75 381.51 174.21 381.14 168.99C380.77 163.77 383.42 159.36 387.14 154.51C389.119 151.796 391.535 149.431 394.29 147.51L397.78 147.25C397.78 147.25 390.16 160.7 398.36 161.33Z" fill="#407BFF"/>
<path opacity="0.9" d="M398.36 161.33C406.54 161.95 412.91 153.24 413.91 148.02L419.22 148.17L426.84 171.65C426.84 171.65 424.16 181.82 423.23 185.45C422.844 186.828 422.754 188.273 422.968 189.688C423.182 191.103 423.694 192.457 424.47 193.66C426.61 197.051 428.486 200.601 430.08 204.28C430.08 204.28 426.55 207.28 417.08 209.28C411.715 210.305 406.227 210.514 400.8 209.9L399.15 198.74L396.1 209.05C396.1 209.05 389.16 208.49 384.1 204.76L387.1 186.27L385.85 178.75C385.85 178.75 381.51 174.21 381.14 168.99C380.77 163.77 383.42 159.36 387.14 154.51C389.119 151.796 391.535 149.431 394.29 147.51L397.78 147.25C397.78 147.25 390.16 160.7 398.36 161.33Z" fill="#383838"/>
<path d="M400.78 154.55C400.78 154.55 409.15 152.71 412.72 147.64V144.64C414.81 144.99 415.29 148.4 415.29 148.4C415.038 150.625 414.11 152.72 412.63 154.4C410.17 157.15 406.23 155.77 406.23 155.77C406.23 155.77 404.36 157.98 403.4 158.23C402.44 158.48 400.78 154.55 400.78 154.55Z" fill="#E0E0E0"/>
<path d="M400.78 154.55C399.58 153.44 398.92 150.03 399.62 147.09C399.62 146.86 399.62 144.61 399.62 144.61C399.369 144.592 399.118 144.633 398.885 144.728C398.653 144.823 398.446 144.971 398.28 145.16L395.86 147.42C395.103 148.667 394.737 150.113 394.81 151.57C394.843 152.16 395.028 152.732 395.347 153.229C395.665 153.727 396.108 154.134 396.63 154.41C396.515 155.28 396.552 156.163 396.74 157.02C397.06 157.7 400.78 154.55 400.78 154.55Z" fill="#E0E0E0"/>
<path d="M486.86 194.7C483.787 194.31 480.75 193.671 477.78 192.79C477.78 192.79 482.78 191.79 483.16 189.65C483.62 187.06 480.41 189.54 475.91 188.91C471.91 188.34 468.56 189.06 466.51 188.47L442.92 179.91C442.92 179.91 432.06 156.41 429 153C425.94 149.59 423.89 148.81 419.25 148.2C416.7 158.49 417.69 166.69 423.35 172.2C423.35 172.2 429.35 183.55 431.69 187.39C434.03 191.23 434.92 191.39 440.52 193.26C447.91 195.65 459.26 197.93 465.66 199.99C473.28 202.43 480.23 205.09 484.97 203.23C486.825 202.573 488.386 201.275 489.37 199.57C490.18 197.68 491.81 195.18 486.86 194.7Z" fill="#B16668"/>
<path d="M418.7 148.14C421.353 148.066 423.978 148.694 426.31 149.96C428.45 151.33 430.11 153.35 433.21 159.06C436.31 164.77 441.35 175.45 441.35 175.45C441.35 175.45 438.91 181.29 428.15 182.45L422.45 172.45C422.45 172.45 418.38 166.97 417.39 161.16C416.68 156.78 417.131 152.291 418.7 148.14Z" fill="#E0E0E0"/>
<path d="M393.59 131C391.59 128.89 390.25 126.27 388.68 123.84C388.079 122.725 387.337 121.693 386.47 120.77C385.63 120.03 384.58 119.55 383.78 118.77C382.662 117.715 381.953 116.298 381.78 114.77C381.716 113.998 381.878 113.225 382.245 112.543C382.613 111.861 383.17 111.301 383.85 110.93C383.33 110.288 382.95 109.545 382.735 108.747C382.52 107.95 382.474 107.116 382.6 106.3C382.714 105.548 382.982 104.828 383.388 104.184C383.793 103.54 384.327 102.987 384.956 102.559C385.585 102.131 386.295 101.838 387.042 101.697C387.79 101.556 388.558 101.571 389.3 101.74C388.924 100.658 388.932 99.4788 389.321 98.4011C389.711 97.3235 390.459 96.4123 391.44 95.8202C392.448 95.2685 393.562 94.9353 394.707 94.8423C395.853 94.7493 397.006 94.8985 398.09 95.2802C400.224 96.0352 402.243 97.0817 404.09 98.3902L404.2 98.4602C409 101.54 414.48 102.46 418.8 106.52C420.771 108.309 422.309 110.522 423.3 112.992C424.291 115.462 424.708 118.125 424.52 120.78C424.03 132.11 414.89 137.92 411.8 141.25C411.65 141.4 410.6 141.3 410.4 141.31L407.27 141.46C406.51 141.46 405.55 141.9 404.83 141.67C403.88 141.36 403.16 140.1 402.6 139.35C400 136 396.4 134 393.59 131Z" fill="#37474F"/>
<path d="M426 132.74C426.19 129.62 426.53 126.52 426.86 123.42C427.17 120.59 426.13 116.48 423.39 115.1C422.73 114.77 421.95 114.52 421.63 113.86C421.524 113.613 421.486 113.342 421.52 113.074C421.553 112.807 421.657 112.554 421.82 112.34C423.23 110.41 427.39 111.23 429.23 111.93C431.616 112.806 433.579 114.558 434.72 116.83C436.13 119.83 435.97 123.26 435.94 126.56C435.91 129.86 436.1 133.38 438.03 136.05C439.23 137.71 441.03 138.86 442.52 140.22C444.01 141.58 445.45 143.34 445.52 145.39C445.5 146.413 445.212 147.413 444.686 148.29C444.16 149.167 443.413 149.891 442.52 150.39C438.08 153.04 431.52 151.19 428.4 147.26C426.16 144.47 425.82 140.63 425.84 137.05C425.86 135.59 425.92 134.16 426 132.74Z" fill="#37474F"/>
<path d="M386.12 127.27C386.36 137.72 389.75 140.27 391.45 141.05C393.15 141.83 396.45 141.34 399.62 140.81V147.09C399.62 147.09 397.79 151.69 400.78 154.55C407.66 153.32 411.29 149.8 412.23 148.69C412.57 148.283 412.758 147.77 412.76 147.24V132.48C412.76 132.48 414.5 134.33 417.59 132.21C418.257 131.786 418.828 131.229 419.267 130.572C419.707 129.915 420.004 129.175 420.142 128.397C420.279 127.619 420.253 126.821 420.065 126.053C419.877 125.286 419.531 124.566 419.05 123.94C417.71 122.36 414.29 122.25 412.65 124.7C411.73 126.51 411.65 128.32 410.57 127.57C407.82 125.57 409.3 121.08 405.97 118.85C404.885 118.266 403.755 117.771 402.59 117.37C396.65 115.32 391.52 113.6 390.28 109.54C387.92 110.93 385.83 114.93 386.12 127.27Z" fill="#B16668"/>
<path d="M397.72 125.19C397.716 125.467 397.794 125.739 397.944 125.971C398.093 126.204 398.308 126.388 398.561 126.499C398.815 126.611 399.095 126.645 399.368 126.598C399.64 126.552 399.893 126.426 400.095 126.236C400.297 126.047 400.438 125.802 400.502 125.533C400.566 125.264 400.549 124.982 400.453 124.722C400.358 124.463 400.188 124.237 399.965 124.073C399.742 123.909 399.476 123.814 399.2 123.8C398.82 123.79 398.45 123.93 398.173 124.19C397.896 124.451 397.733 124.81 397.72 125.19Z" fill="#263238"/>
<path d="M387.45 124.55C387.438 124.728 387.461 124.906 387.517 125.074C387.574 125.243 387.664 125.398 387.781 125.532C387.898 125.666 388.04 125.775 388.2 125.854C388.359 125.933 388.533 125.979 388.71 125.99C388.89 126.006 389.072 125.983 389.243 125.923C389.414 125.864 389.571 125.768 389.702 125.643C389.834 125.519 389.937 125.367 390.006 125.2C390.074 125.032 390.106 124.851 390.1 124.67C390.112 124.493 390.089 124.315 390.032 124.146C389.976 123.978 389.886 123.822 389.769 123.689C389.652 123.555 389.51 123.445 389.35 123.367C389.191 123.288 389.017 123.242 388.84 123.23C388.481 123.222 388.133 123.357 387.873 123.604C387.612 123.851 387.46 124.191 387.45 124.55Z" fill="#263238"/>
<path d="M399.62 140.81C402.98 140.37 409.9 138.38 410.98 135.65C410.544 137.034 409.696 138.252 408.55 139.14C406.49 140.91 399.62 142.9 399.62 142.9V140.81Z" fill="#9A4A4D"/>
<path d="M398.79 119.18L402.21 120.28C402.335 119.817 402.28 119.325 402.055 118.901C401.83 118.478 401.453 118.156 401 118C400.778 117.929 400.543 117.904 400.311 117.925C400.078 117.947 399.852 118.014 399.646 118.124C399.44 118.234 399.259 118.384 399.112 118.566C398.964 118.747 398.855 118.956 398.79 119.18Z" fill="#263238"/>
<path d="M400 133.18L395.59 134.71C395.678 135.004 395.825 135.276 396.021 135.512C396.217 135.747 396.459 135.941 396.731 136.081C397.004 136.221 397.302 136.304 397.607 136.327C397.913 136.349 398.22 136.309 398.51 136.21C398.81 136.115 399.089 135.959 399.328 135.754C399.567 135.548 399.762 135.296 399.901 135.013C400.04 134.73 400.12 134.422 400.137 134.107C400.154 133.792 400.108 133.477 400 133.18Z" fill="#9A4A4D"/>
<path d="M386.87 119.49L390.37 118.57C390.322 118.338 390.228 118.119 390.092 117.926C389.956 117.732 389.782 117.568 389.581 117.445C389.379 117.321 389.154 117.24 388.92 117.206C388.686 117.173 388.448 117.188 388.22 117.25C387.751 117.38 387.349 117.684 387.098 118.101C386.847 118.518 386.765 119.015 386.87 119.49Z" fill="#263238"/>
<path d="M404.59 120.94L416.35 122.8C415.756 122.784 415.166 122.89 414.615 123.112C414.065 123.334 413.566 123.667 413.15 124.09L404.59 122.82V120.94Z" fill="#263238"/>
<path d="M382.71 121.11C382.762 121.579 382.953 122.022 383.26 122.38C383.369 122.51 383.444 122.665 383.48 122.83C383.638 123.978 383.885 125.111 384.22 126.22C384.506 126.969 385.018 127.609 385.684 128.054C386.351 128.498 387.139 128.724 387.94 128.7C388.368 128.73 388.798 128.706 389.22 128.63H389.32C389.686 128.559 390.04 128.434 390.37 128.26H390.43L390.52 128.2L390.64 128.13L390.74 128.06L390.86 127.97L390.97 127.88C391.041 127.822 391.108 127.759 391.17 127.69C391.525 127.319 391.819 126.894 392.04 126.43C392.61 125.26 392.5 123.61 393.4 123.43H393.51H393.62C394.84 123.43 394.62 125.27 395.32 126.57C395.696 127.405 396.316 128.107 397.097 128.585C397.878 129.063 398.785 129.295 399.7 129.25H400.31C400.524 129.238 400.738 129.215 400.95 129.18H401.15H401.34H401.46C401.71 129.101 401.951 128.997 402.18 128.87L402.43 128.72C402.58 128.61 402.71 128.5 402.85 128.38C403.192 128.04 403.47 127.64 403.67 127.2C404.025 126.117 404.293 125.007 404.47 123.88C404.509 123.705 404.58 123.539 404.68 123.39C405.004 123.067 405.22 122.651 405.3 122.2C405.326 121.967 405.269 121.732 405.139 121.536C405.01 121.341 404.815 121.197 404.59 121.13L403.94 121.03C401.82 120.671 399.658 120.644 397.53 120.95C395.53 121.44 394.76 122.06 393.63 122.01C392.5 121.96 391.89 121.3 389.98 120.65C388.019 120.167 385.99 120.018 383.98 120.21H383.38C383.191 120.276 383.026 120.397 382.907 120.557C382.787 120.718 382.719 120.91 382.71 121.11ZM396.06 122.65C396.223 122.463 396.424 122.313 396.65 122.21L396.76 122.15H396.82L397.11 122.02L397.37 121.92C397.64 121.83 397.94 121.75 398.25 121.68L398.6 121.61C398.89 121.61 399.19 121.52 399.49 121.49H399.7C400.957 121.309 402.237 121.582 403.31 122.26C403.77 122.67 403.52 124.41 403.31 125.26V125.33V125.39C403.287 125.512 403.257 125.632 403.22 125.75L403.15 125.97C403.15 126.09 403.06 126.21 403.01 126.34L402.95 126.46C402.954 126.487 402.954 126.514 402.95 126.54C402.954 126.567 402.954 126.594 402.95 126.62C402.946 126.657 402.946 126.694 402.95 126.73L402.88 126.84L402.8 126.97L402.71 127.09C402.386 127.505 401.962 127.831 401.477 128.038C400.993 128.244 400.464 128.324 399.94 128.27C399.409 128.291 398.881 128.201 398.387 128.006C397.893 127.812 397.444 127.517 397.07 127.14C396.613 126.628 396.299 126.003 396.16 125.33C395.819 124.475 395.784 123.528 396.06 122.65ZM384.56 121.46C384.704 121.336 384.87 121.241 385.05 121.18L385.27 121.11H385.4H385.51H385.61H385.71C385.862 121.078 386.015 121.058 386.17 121.05H386.41H387.21C387.512 121.066 387.812 121.099 388.11 121.15C389.304 121.281 390.424 121.789 391.31 122.6C391.623 123.466 391.644 124.411 391.37 125.29C391.323 125.515 391.26 125.735 391.18 125.95V126.01C391.182 126.037 391.182 126.064 391.18 126.09C391.18 126.09 391.13 126.19 391.11 126.25C391.09 126.31 391.11 126.34 391.03 126.39L390.97 126.49C390.951 126.515 390.934 126.542 390.92 126.57C390.584 127.018 390.134 127.366 389.616 127.579C389.099 127.792 388.534 127.862 387.98 127.78C387.473 127.761 386.975 127.635 386.52 127.41C386.014 127.091 385.585 126.662 385.267 126.154C384.948 125.647 384.748 125.075 384.68 124.48C384.37 123.6 384.14 121.84 384.56 121.46Z" fill="#263238"/>
<path d="M393.9 123.42V131.86L389.27 130.43L393.57 123.37C393.682 123.368 393.794 123.385 393.9 123.42Z" fill="#9A4A4D"/>
<path d="M298 242.09C301.58 241.702 305.186 242.518 308.25 244.41C311.34 246.48 325.59 259.34 325.59 259.34C324.9 260.88 319.59 264.95 317.93 265.1H308.25C308.25 265.1 304.2 257.62 302.59 253.4C300.98 249.18 298 242.09 298 242.09Z" fill="#F0F0F0"/>
<path d="M276.1 238.65C270.1 238.93 265.86 240.25 261.56 244.28C258.39 247.28 250.84 267.9 253.81 281.83C256.1 292.55 269.71 298.09 280.1 293.15C288.3 289.25 289.29 273.72 289.1 266.67C288.91 259.62 276.1 238.65 276.1 238.65Z" fill="#407BFF"/>
<path opacity="0.3" d="M276.1 238.65C270.1 238.93 265.86 240.25 261.56 244.28C258.39 247.28 250.84 267.9 253.81 281.83C256.1 292.55 269.71 298.09 280.1 293.15C288.3 289.25 289.29 273.72 289.1 266.67C288.91 259.62 276.1 238.65 276.1 238.65Z" fill="black"/>
<path d="M268.65 243.83C268.65 243.83 267.03 241.83 263.26 242.95C260.199 246.817 257.83 251.185 256.26 255.86C256.26 255.86 255.26 255.86 255.9 253.46C256.54 251.06 259.01 245.4 260.62 243.4C262.23 241.4 264.1 238.28 275.62 237.19C279.28 236.85 290 237.61 293.25 238.65C298.25 240.27 297.3 242.97 297.3 242.97L268.65 243.83Z" fill="#407BFF"/>
<path opacity="0.5" d="M268.65 243.83C268.65 243.83 267.03 241.83 263.26 242.95C260.199 246.817 257.83 251.185 256.26 255.86C256.26 255.86 255.26 255.86 255.9 253.46C256.54 251.06 259.01 245.4 260.62 243.4C262.23 241.4 264.1 238.28 275.62 237.19C279.28 236.85 290 237.61 293.25 238.65C298.25 240.27 297.3 242.97 297.3 242.97L268.65 243.83Z" fill="black"/>
<path d="M281.38 236.9L303.44 235L301.78 216.62C300.86 206.78 291.02 199.53 281.18 200.44C276.455 200.874 272.096 203.166 269.062 206.814C266.027 210.462 264.566 215.165 265 219.89L265.29 223.58C265.471 225.511 266.03 227.389 266.937 229.104C267.843 230.819 269.079 232.338 270.574 233.575C272.068 234.813 273.792 235.743 275.646 236.313C277.5 236.884 279.449 237.083 281.38 236.9Z" fill="#37474F"/>
<path d="M289.94 378.3C289.736 377.924 289.591 377.52 289.51 377.1C289.273 375.739 289.477 374.338 290.09 373.1C290.871 371.655 291.26 370.032 291.22 368.39C291.04 366.69 290.75 364.99 290.49 363.3C289.32 355.66 287.25 343.03 287.17 340.02C287.04 334.88 287.04 332.35 288 328.31C288 328.31 284.43 316.65 282.92 310C280.52 299.39 278.92 291.17 279.75 282C280.51 273.68 279.61 270.16 284.46 264.58L285.37 263.42C285.37 263.42 300.55 282.24 301.51 285.42C303.086 295.883 304.071 306.426 304.46 317C304.72 325.06 304.39 326.16 303.46 335.62C302.7 343.41 301.91 352.03 300.97 361.2C300.68 364.1 300.45 367.58 301.36 370.39C303.26 376.2 308.58 379.64 313.07 383.39C313.504 383.659 313.877 384.016 314.164 384.438C314.452 384.86 314.648 385.338 314.74 385.84C314.716 386.279 314.574 386.704 314.329 387.07C314.085 387.436 313.747 387.729 313.35 387.92C312.376 388.319 311.341 388.552 310.29 388.61C309.179 388.843 308.044 388.937 306.91 388.89C304.926 388.847 302.965 388.465 301.11 387.76C299.571 386.914 298.188 385.811 297.02 384.5C295.83 383.3 294.6 381.57 293.16 380.68C292 379.93 290.64 379.55 289.94 378.3Z" fill="#FFA8A7"/>
<path d="M241.72 370.82C242.078 369.83 242.684 368.949 243.48 368.26C244.378 367.527 245.233 366.742 246.04 365.91C246.676 365.012 247.175 364.025 247.52 362.98C247.78 362.35 248.41 360.25 249.22 357.45C251.38 350.03 254.82 337.7 256.02 334.94C258.02 330.23 260.02 327.18 262.63 325.06C262.63 325.06 263.23 312.21 263.46 305.4C263.82 295.33 264.99 284.47 269.84 277.45C274.69 270.43 278.61 268.35 285.37 265.34L286.68 264.67C286.68 264.67 288.94 296.44 287.54 295.06C285.75 303.26 283.37 312.9 281.4 321.33C279.62 328.94 279.15 330.33 273.87 338.33C269.57 344.87 264.45 352.68 259.74 360.6C257.74 364.04 255.42 368.66 254.96 372.73C254.349 378.232 255.807 383.764 259.05 388.25C259.55 388.753 259.861 389.414 259.93 390.12C259.93 391.12 258.87 391.74 257.93 392.06C255.621 392.829 253.115 392.761 250.85 391.87C248.942 391.101 247.315 389.767 246.186 388.048C245.056 386.329 244.479 384.306 244.53 382.25C244.76 379.917 244.305 377.568 243.22 375.49C242.56 374.33 241.63 373.22 241.57 371.89C241.558 371.527 241.609 371.165 241.72 370.82Z" fill="#FFA8A7"/>
<path d="M266.35 350C263.651 350.724 260.79 350.549 258.2 349.5C253.79 347.76 252.98 344.5 252.98 344.5L253.26 343.5C253.26 343.5 252.95 343.34 252.59 344.81C252.23 346.28 247.9 360.73 247.53 362.3C247.005 363.885 246.336 365.418 245.53 366.88C245.53 366.88 245.98 375.25 246.62 377.56C247.26 379.87 248.77 385.16 252.15 385.16C255.53 385.16 256.05 383.49 255.83 381.9C255.426 379.954 255.148 377.983 255 376C254.872 373.205 255.336 370.414 256.36 367.81C257.48 364.81 264.96 352.38 265.76 351.26C266.56 350.14 267.01 349.52 266.9 349.02L266.35 350Z" fill="#FAFAFA"/>
<path d="M270.21 243.29C266.81 243.9 265.21 246.59 264.46 249.96C264.09 251.64 264.29 253.64 264.79 257.18C265.29 260.72 267.99 279.62 267.99 279.62L265.99 291.74C271.46 297.69 291.5 299.4 303.45 290.67C303.45 290.67 302.85 260.16 301.96 254.15C300.4 243.71 294.8 240.52 289.78 240.91L277.6 241.62L270.21 243.29Z" fill="#FAFAFA"/>
<path d="M291.89 241.49C291.89 241.49 300.71 247.68 303.01 273.35C304.23 272.3 306.14 263.35 305.25 257.74C304.44 252.59 301.56 244.26 297.95 242.09C296.08 241.125 293.913 240.911 291.89 241.49Z" fill="#407BFF"/>
<path opacity="0.4" d="M291.89 241.49C291.89 241.49 300.71 247.68 303.01 273.35C304.23 272.3 306.14 263.35 305.25 257.74C304.44 252.59 301.56 244.26 297.95 242.09C296.08 241.125 293.913 240.911 291.89 241.49Z" fill="black"/>
<path d="M270.71 243.18C270.71 243.18 273.92 257.39 269.36 266.95C267.68 270.46 264.36 273.64 262.82 274.3C262.82 274.3 262.82 278.69 265.25 280.62C265.25 280.62 271.31 276.78 274.04 271.62C276.48 266.98 279.5 257.47 275.94 242.2C275.94 242.17 272.58 242.14 270.71 243.18Z" fill="#407BFF"/>
<path d="M270.71 243.18C270.71 243.18 273.92 257.39 269.36 266.95C267.68 270.46 264.36 273.64 262.82 274.3C262.82 274.3 262.82 278.69 265.25 280.62C265.25 280.62 271.31 276.78 274.04 271.62C276.48 266.98 279.5 257.47 275.94 242.2C275.94 242.17 272.58 242.14 270.71 243.18Z" fill="#407BFF"/>
<path opacity="0.4" d="M270.71 243.18C270.71 243.18 273.92 257.39 269.36 266.95C267.68 270.46 264.36 273.64 262.82 274.3C262.82 274.3 262.82 278.69 265.25 280.62C265.25 280.62 271.31 276.78 274.04 271.62C276.48 266.98 279.5 257.47 275.94 242.2C275.94 242.17 272.58 242.14 270.71 243.18Z" fill="black"/>
<path d="M244.68 208.24C245.22 204.76 245.83 201.24 246.68 197.87C247.091 195.895 247.742 193.977 248.62 192.16C249.512 190.335 250.938 188.824 252.71 187.83C253.697 187.285 254.829 187.058 255.95 187.18C257.06 187.34 259.29 187.97 259.78 188.98C260.44 190.33 259.68 191.49 258.99 192.83C258.314 194.126 257.716 195.462 257.2 196.83C257.11 197.08 256.2 199.04 256.91 198.83C257.065 198.754 257.204 198.649 257.32 198.52C257.714 198.146 258.192 197.873 258.715 197.725C259.238 197.577 259.788 197.558 260.32 197.67C260.533 197.699 260.727 197.811 260.86 197.98C261.05 198.31 260.77 198.69 260.52 198.98C259.384 200.206 258.337 201.513 257.39 202.89C256.428 204.034 255.685 205.346 255.2 206.76C254.99 207.76 254.27 223.42 254.7 227.34C254.7 227.34 264.56 238.82 270.28 243.34C274.05 256.87 266.01 261.34 265.01 258.34C265.01 258.34 245.22 237.49 242.94 232.59C242.263 230.967 242.015 229.197 242.22 227.45C242.56 222.6 243.37 217.78 244.06 212.97C244.21 211.35 244.44 209.79 244.68 208.24Z" fill="#FFA8A7"/>
<path d="M303.17 278.69L314.55 314.25C314.55 314.25 311.32 326.13 284.78 326.14C258.6 326.14 255.02 313.68 255.02 313.68L268.02 279.62C273.61 285.68 297.92 284 303.17 278.69Z" fill="#2D56B2"/>
<path d="M275.26 224.46C274.62 224.93 274.47 225.15 273.9 224.08C272.66 221.77 268.81 221.23 267.74 224.24C266.67 227.25 269.64 230.91 271.86 231.37C275.68 232.15 276 229.72 276 229.72L277.65 243.07C278.653 244.779 280.064 246.214 281.757 247.245C283.449 248.277 285.371 248.872 287.35 248.98C294.02 249.19 293.35 243.69 290.96 241.25L290.57 237.5C292.219 237.417 293.845 237.08 295.39 236.5C297.39 235.71 298.89 234.29 299.94 230.97C301.35 226.49 301.11 221.78 298.85 213.14C296.23 203.14 283.67 204.14 277.67 208.81C271.67 213.48 275.26 224.46 275.26 224.46Z" fill="#FFA8A7"/>
<path d="M290.2 248.61C290.2 248.61 281.41 246.76 277.51 241.94L277.11 238.7C275.05 239.19 274.75 242.51 274.75 242.51C275.366 245.013 276.596 247.323 278.33 249.23C280.96 251.81 284.8 250.17 284.8 250.17C284.8 250.17 286.8 252.25 287.8 252.44C288.8 252.63 290.2 248.61 290.2 248.61Z" fill="#E0E0E0"/>
<path d="M290.2 248.61C291.33 247.42 291.86 244.14 290.96 241.25C290.96 241.03 290.69 238.62 290.69 238.62C291.188 238.638 291.67 238.797 292.08 239.08C292.51 239.36 294.24 240.72 294.24 240.72C295.244 242.026 295.842 243.597 295.96 245.24C295.968 245.831 295.822 246.414 295.536 246.931C295.251 247.449 294.835 247.882 294.33 248.19C294.503 249.05 294.527 249.933 294.4 250.8C294.12 251.51 290.2 248.61 290.2 248.61Z" fill="#E0E0E0"/>
<path d="M273.9 224.08L274.27 227.08C275.017 227.001 275.705 226.635 276.187 226.058C276.668 225.481 276.906 224.739 276.85 223.99L276.38 217.69L272.32 218.86L273.9 224.08Z" fill="#37474F"/>
<path d="M286 200.51C290.36 199.958 294.76 201.159 298.235 203.85C301.71 206.54 303.974 210.501 304.53 214.86L304.8 216.99L296.75 217.99C294.94 218.219 293.109 217.785 291.594 216.769C290.079 215.752 288.984 214.222 288.51 212.46L289 219C287.511 219.189 286.005 218.813 284.78 217.947C283.555 217.081 282.698 215.787 282.38 214.32L282.15 213.32C282.237 215.105 281.647 216.857 280.497 218.226C279.347 219.594 277.723 220.478 275.95 220.7L274.01 220.83L273 209.24L286 200.51Z" fill="#37474F"/>
<path d="M287 222.35C287.016 222.62 286.953 222.889 286.817 223.123C286.682 223.357 286.481 223.546 286.239 223.667C285.998 223.788 285.725 223.835 285.457 223.803C285.189 223.77 284.936 223.66 284.729 223.485C284.523 223.31 284.373 223.078 284.298 222.819C284.222 222.559 284.224 222.283 284.304 222.025C284.384 221.767 284.538 221.537 284.747 221.366C284.956 221.194 285.211 221.088 285.48 221.06C285.665 221.044 285.851 221.064 286.028 221.12C286.204 221.177 286.368 221.267 286.51 221.387C286.651 221.507 286.767 221.654 286.851 221.82C286.936 221.985 286.986 222.165 287 222.35Z" fill="#263238"/>
<path d="M284.79 218.38L282 220.29C281.75 219.912 281.656 219.452 281.738 219.006C281.82 218.561 282.072 218.164 282.44 217.9C282.623 217.768 282.831 217.676 283.051 217.628C283.272 217.581 283.5 217.58 283.72 217.625C283.941 217.67 284.15 217.76 284.335 217.89C284.519 218.02 284.674 218.187 284.79 218.38Z" fill="#263238"/>
<path d="M286.33 229.4L291.71 230.81C291.634 231.169 291.486 231.51 291.275 231.81C291.064 232.111 290.794 232.366 290.483 232.561C290.171 232.755 289.823 232.884 289.46 232.941C289.097 232.997 288.726 232.98 288.37 232.89C287.644 232.686 287.026 232.208 286.645 231.557C286.264 230.906 286.152 230.133 286.33 229.4Z" fill="#B16668"/>
<path d="M286.43 231.08C286.772 230.854 287.171 230.729 287.58 230.72C288.166 230.705 288.735 230.916 289.171 231.309C289.606 231.701 289.874 232.246 289.92 232.83C289.421 233.005 288.881 233.026 288.37 232.89C287.924 232.769 287.514 232.541 287.176 232.225C286.838 231.91 286.582 231.517 286.43 231.08Z" fill="#F28F8F"/>
<path d="M298.84 216.78L295.57 215.95C295.613 215.733 295.7 215.528 295.826 215.346C295.951 215.164 296.113 215.01 296.3 214.893C296.487 214.776 296.697 214.699 296.915 214.665C297.134 214.632 297.356 214.644 297.57 214.7C298.008 214.818 298.384 215.1 298.62 215.487C298.856 215.874 298.935 216.337 298.84 216.78Z" fill="#263238"/>
<path d="M298.46 221.05C298.476 221.32 298.413 221.589 298.278 221.823C298.142 222.057 297.941 222.246 297.7 222.367C297.458 222.488 297.186 222.535 296.917 222.503C296.649 222.47 296.396 222.36 296.19 222.185C295.984 222.01 295.833 221.778 295.758 221.519C295.682 221.259 295.684 220.983 295.764 220.725C295.844 220.466 295.998 220.237 296.207 220.066C296.416 219.894 296.671 219.788 296.94 219.76C297.313 219.73 297.682 219.848 297.967 220.09C298.252 220.332 298.43 220.677 298.46 221.05Z" fill="#263238"/>
<path d="M290.98 220.43L292.13 227.72L295.83 226.02L290.98 220.43Z" fill="#F28F8F"/>
<path d="M290.57 237.5C290.57 237.5 283.96 237.5 280.8 235.89C279.513 235.31 278.394 234.412 277.55 233.28C277.952 234.509 278.637 235.625 279.55 236.54C282.84 239.71 290.71 239.1 290.71 239.1L290.57 237.5Z" fill="#F28F8F"/>
<path d="M246 365.91C246 365.91 245.57 366.65 245.49 366.91C245.34 367.3 246.01 369.33 246.77 371.85C247.53 374.37 248.07 380.85 250.21 382.7C252.35 384.55 256.21 383.61 255.79 381.93C256.596 383.445 257.491 384.911 258.47 386.32C259.47 387.59 261.22 389.66 260.3 391.49C259.787 392.346 258.969 392.975 258.01 393.25C256.449 393.673 254.815 393.756 253.219 393.492C251.623 393.228 250.102 392.624 248.76 391.72C247.418 390.924 246.292 389.812 245.48 388.48C244.667 387.148 244.194 385.637 244.1 384.08C243.79 381.63 244.33 379.03 243.41 377.24C242.49 375.45 241.35 373.53 240.89 372.54C240.81 371.219 241.215 369.914 242.03 368.87C243.137 367.622 244.488 366.615 246 365.91Z" fill="#37474F"/>
<path d="M302.76 342.93C302.76 342.93 303.29 342.93 303.09 344.76C302.94 346.22 301.53 358.1 301.29 361.88C301.05 365.66 300.79 369.64 302.44 372.49C304.09 375.34 308.61 379.77 308.61 379.77C308.61 379.77 308.11 383.41 301.66 382.06C297.57 381.2 290.09 373.13 290.09 373.13C290.09 373.13 290.74 370.96 290.98 369.69C291.22 368.42 289.69 360.11 288.98 356C288.27 351.89 287.49 346.05 287.29 344.61C287 342.61 287.42 342.66 287.42 342.66L287.56 343.77C287.56 343.77 288.56 345.58 295.08 345.77C301.02 345.95 302.69 343.77 302.69 343.77L302.76 342.93Z" fill="#FAFAFA"/>
<path d="M291 368.77V369.69C290.85 370.486 290.932 371.309 291.235 372.06C291.538 372.812 292.05 373.461 292.71 373.93C295.04 375.53 297.95 378.48 299.82 379.93C302.51 382 306.43 381.85 307.87 380.53C308.036 380.401 308.162 380.226 308.233 380.028C308.304 379.83 308.317 379.615 308.27 379.41C308.27 379.41 309.77 380.41 311.06 381.31C312.35 382.21 315.49 383.88 315.18 385.91C314.87 387.94 312.97 389.04 310.39 389.47C306.89 389.994 303.317 389.287 300.28 387.47C297.91 385.93 295.89 382.9 294.96 382.07C294.03 381.24 291.09 380.07 290.06 379.43C289.24 378.91 288.7 376.67 289.19 374.9C289.634 373.43 289.968 371.929 290.19 370.41C290.27 369.49 290.34 368.84 291 368.77Z" fill="#37474F"/>
<path d="M270.71 243.18L259 232.24C259.09 235.88 254.14 242.83 251.34 243.41L265.5 262.41C265.5 262.41 266.73 262.77 268.5 261.06C270.373 258.975 271.511 256.334 271.74 253.54C272.21 249.94 270.71 243.18 270.71 243.18Z" fill="#F0F0F0"/>
<path d="M325.22 259.84C329.09 263.23 332.61 266.49 334.35 269.49C336.86 273.81 335.22 276.91 331.83 277.49C329.457 277.883 327.043 277.957 324.65 277.71C319.203 277.213 313.819 276.172 308.58 274.6C305.72 273.84 303.58 273.47 303.01 273.32C301.16 272.84 299.08 273.22 297.82 267.11C297.17 263.96 296.72 260.03 300.97 259.55L301.18 260.48C301.53 261.07 304.77 260.65 305.48 259.9C305.402 258.67 305.234 257.446 304.98 256.24C305.88 255.83 306.98 256.85 307.6 258.83C307.917 260.234 308.443 261.582 309.16 262.83C310.26 264.32 313.73 264.83 317.88 265.03C320.622 263.761 323.109 262.002 325.22 259.84Z" fill="#FFA8A7"/>
<path d="M317.88 265.1C321.2 265.25 322.88 264.65 326.71 265.48C324.924 264.258 322.815 263.593 320.65 263.57C319.754 264.128 318.83 264.639 317.88 265.1Z" fill="#F28F8F"/>
<path d="M116.87 212.32L127.87 225.14L144.15 214.46L148.41 223.46C143.479 227.904 138.254 232.01 132.77 235.75C130.26 237.36 125.25 241.39 121.77 237.9C118.48 234.6 113.98 229.16 113.98 229.16L116.87 212.32Z" fill="#FFA8A7"/>
<path d="M144.14 214.46L139 217.84C139.348 219.708 140.306 221.408 141.722 222.674C143.139 223.94 144.935 224.702 146.83 224.84L148.42 223.43L144.14 214.46Z" fill="#F28F8F"/>
<path d="M101.16 202C108.05 201.55 113.52 206.79 117.5 211.48C121.48 216.17 126.66 223.56 126.66 223.56C126.66 223.56 123.88 231.68 116.54 234.14L103.9 219.14L101.16 202Z" fill="#F0F0F0"/>
<path d="M183.88 342.41C183.94 344.52 185.88 349.81 185.88 349.81C185.88 349.81 187.24 351.44 190.63 351.86L190 344L183.88 342.41Z" fill="#263238"/>
<path d="M190.66 351.86L196.78 347.83V341.42L190.27 347.29L190.66 351.86Z" fill="black"/>
<path d="M193.42 332.15L193.12 330.84C194.12 331.04 197.62 338.14 201.71 342.44C205.44 346.38 211.05 347.61 213.19 349.18C216.05 351.28 212.84 355.87 205.79 356.25C202.29 356.44 196.71 355.68 194.79 353.82C192.87 351.96 191.25 347.98 189.7 346.64C188.15 345.3 184.99 344.13 183.92 342.41C183.34 341.47 183.25 339.13 183.31 337.13C183.38 335.29 183.43 333.26 184.06 333.29C184.06 333.5 184.35 334.39 184.35 334.39C184.66 335.25 185.92 336.03 189.52 335.22C191.1 334.86 193.91 333.92 193.42 332.15Z" fill="#455A64"/>
<path d="M118.11 309C117.11 310.66 116.42 321.58 116.42 321.58C117.792 323.205 119.327 324.686 121 326L124.6 315.36L118.11 309Z" fill="#263238"/>
<path d="M121.03 326.03L129.53 323.03L132.01 315.93L123.21 319.5L121.03 326.03Z" fill="black"/>
<path d="M124.29 302.36C123.68 301.81 122.9 302.98 121.29 304.74C120.093 305.97 119.039 307.332 118.15 308.8C117.26 310.61 119.88 314.58 121.58 316.74C123.28 318.9 123.74 320.99 124.1 324.3C124.54 328.3 124.1 330.84 129.44 333.85C133.71 336.25 141.78 335.85 143.36 334C146.04 330.84 138.56 327.77 136.76 322.12C134.27 314.33 133.92 313.02 133.53 307.43L124.29 302.36Z" fill="#455A64"/>
<path d="M189.76 194.73C186.15 197.25 184.07 200.4 167.31 198.73L165.31 247.04C165.31 247.04 151.93 256.36 148.16 262.44C144.39 268.52 126.7 298.76 126.7 298.76L124.17 302.48C122.59 304.79 123.39 306.64 125.7 308.21C128.01 309.78 130.7 310.52 132.47 308.58L134.65 306.2C134.65 306.2 177.87 264.26 179.35 261.74C180.83 259.22 184.12 252.96 187.03 240.27C190.79 224 190.42 212.54 189.76 194.73Z" fill="#FFA8A7"/>
<path d="M168.45 202.64C175.939 201.19 183.139 198.518 189.76 194.73C190.872 202.382 191.404 210.108 191.35 217.84C191.35 222.66 190.18 232.84 190.18 232.84C187.93 246.24 184 261 179.81 265.3C175.62 269.6 151.9 289.42 151.9 289.42C151.9 289.42 142.18 286.22 137.9 277.42C137.9 277.42 145.95 263.93 151.48 257.25C157.21 250.31 166.98 246.11 166.98 246.11L168.45 202.64Z" fill="#37474F"/>
<path d="M179.61 265.51L178.87 252.83L174.49 229.11L167.72 224.11L167 246.15C163.103 247.926 159.436 250.169 156.08 252.83L163.34 266C163.34 266 162.45 275 163.91 279.31C170.29 273.89 177.29 267.86 179.61 265.51Z" fill="#263238"/>
<path d="M193.87 333.15L193.72 332.15C191.96 323.39 187.64 274.62 186.09 261.5C184.41 247.3 177.88 213.17 177.88 213.17C177.88 213.17 185.03 201.24 189.76 194.71C185.32 201.14 159.21 201.11 156.35 190.04C154.75 194.71 147.78 200.15 148.78 214.8C150.06 233.47 166.94 264.8 166.94 264.8C166.72 267.34 165.65 278 168.07 287.44C171.89 302.35 182.42 328.28 183.64 331.88L184.47 334.94C186.4 336.78 193 335.73 193.87 333.15Z" fill="#FFA8A7"/>
<path d="M183.34 235.5L180.34 214.82C185.089 209.003 188.325 202.101 189.76 194.73C189.76 194.73 183.3 198.73 173.42 197.43C167.185 196.502 161.301 193.962 156.35 190.06C154.531 192.615 152.936 195.322 151.58 198.15C150.08 201.05 147.83 208.39 148.18 213.81C148.98 226.26 154.45 239.03 154.45 239.03C157.57 248.5 165.7 265.45 165.7 265.45C165.7 265.45 164.84 278.56 167.06 287.64C168.849 294.203 171.239 300.586 174.2 306.71C174.2 306.71 185 309 191.35 304.19L186.72 259.6C185.42 247.08 183.34 235.5 183.34 235.5Z" fill="#455A64"/>
<path d="M169.65 161.47L169.44 161.37C156.3 155.18 151.02 140.6 151.67 126.77C151.785 122.386 152.693 118.06 154.35 114C156.03 109.919 158.92 106.45 162.63 104.06C165.518 102.35 168.778 101.368 172.13 101.2C175.18 101 179.13 101.05 181.98 102.2C182.416 102.416 182.893 102.537 183.379 102.554C183.865 102.572 184.35 102.485 184.8 102.3C185.823 102.067 186.876 102.003 187.92 102.11C189.331 102.307 190.69 102.78 191.919 103.503C193.147 104.225 194.221 105.182 195.08 106.32C197.5 109.32 197.79 113.76 196.95 117.38C196.56 119.04 195.1 120.87 195.2 122.46C195.34 124.77 197.33 127.2 198.66 128.96C200.26 131.06 201.98 133.15 202.8 135.66C203.62 138.17 203.31 141.25 201.32 142.99C203.185 144.342 204.611 146.213 205.42 148.37C205.807 149.45 205.883 150.617 205.639 151.738C205.395 152.859 204.841 153.889 204.04 154.71C203.278 155.256 202.55 155.847 201.86 156.48C201 157.48 200.77 158.85 200.24 160.05C199.03 162.78 196.19 164.52 193.24 165.15C190.28 165.623 187.261 165.596 184.31 165.07C179.34 164.43 174.25 163.61 169.65 161.47Z" fill="#455A64"/>
<path d="M241.19 158C241.385 157.464 241.493 156.9 241.51 156.33C241.353 155.705 241.121 155.1 240.82 154.53C240.663 154.031 240.408 153.569 240.07 153.17C239.747 152.873 239.353 152.663 238.926 152.56C238.499 152.456 238.053 152.463 237.63 152.58C236.787 152.831 236.018 153.284 235.39 153.9C234.15 155 233.13 156.35 231.94 157.51C231.318 158.131 230.615 158.666 229.85 159.1C229.481 159.309 229.093 159.48 228.69 159.61C228.42 159.7 227.77 159.97 227.69 159.61C227.709 159.201 227.787 158.797 227.92 158.41C228.02 157.77 228.1 157.13 228.14 156.49C228.2 155.39 228.25 153.8 227.37 152.98C225.89 151.6 226.26 154.77 223.96 157.77C221.66 160.77 221.31 165.28 219.55 167.31L209 176.47C209 176.47 201.3 162.18 196.73 154.25C192.31 146.57 186.07 146.25 180.5 146.65C177.84 155.44 186.72 168.26 186.72 168.26C186.72 168.26 200.17 187.31 202.72 190.1C205.72 193.46 209.61 193.58 212.77 190.58C214.843 188.532 216.762 186.332 218.51 184C220.769 180.9 223.224 177.947 225.86 175.16C227.057 173.854 228.426 172.717 229.93 171.78C231.814 170.745 233.634 169.596 235.38 168.34C236.749 167.346 238.012 166.213 239.15 164.96C239.739 164.34 240.275 163.671 240.75 162.96C241.039 162.383 241.273 161.781 241.45 161.16C241.684 160.643 241.823 160.087 241.86 159.52C241.876 159.236 241.821 158.952 241.7 158.694C241.58 158.435 241.398 158.211 241.17 158.04L241.19 158Z" fill="#FFA8A7"/>
<path d="M166.15 146.51L157.21 147C156.504 147.319 155.834 147.711 155.21 148.17C152.42 150.42 152.21 154.82 151.74 158.07C151.03 162.95 153.32 168.42 154.57 173.07C156.148 178.377 156.182 184.024 154.67 189.35C153.858 191.739 152.903 194.076 151.81 196.35C151.35 197.48 150.34 199.02 150.23 200.26C157.68 207.86 179.99 213.07 191.3 203.77C191.39 198.37 191.3 187.03 191.3 186.77C191.53 181.88 191.3 176.93 191.3 176.93C197.46 170.93 194.98 164.39 192.82 160.06C188.5 151.41 183.03 146.32 179.22 146.51H166.15Z" fill="#FA8A00"/>
<path d="M130.91 180.36C142.21 157.36 144.28 150.58 150.76 147.9C152.843 147.235 155.024 146.93 157.21 147C158.8 149.91 161.67 161.15 155.01 167.63C155.01 167.63 145.71 180.36 142.29 186.41C142.98 192.67 143.45 200.17 145.46 204.51C145.666 204.948 145.959 205.34 146.319 205.663C146.68 205.986 147.102 206.233 147.56 206.39C150.06 207.29 150.67 208.66 152.63 210.02C154.16 211.08 155.37 211.19 155.24 211.65C155.014 212.177 154.616 212.612 154.111 212.885C153.607 213.157 153.025 213.251 152.46 213.15C151.425 212.995 150.415 212.698 149.46 212.27C150.555 213.94 151.905 215.428 153.46 216.68C157.16 219.76 157.58 222 151.01 223.31C146.89 224.13 143.31 222.41 139.19 214.6C137.61 211.747 136.256 208.774 135.14 205.71C133.19 199.906 131.653 193.971 130.54 187.95C130 184.49 130.21 181.77 130.91 180.36Z" fill="#FFA8A7"/>
<path d="M158.59 124C160.46 121.9 163.7 122.28 165.29 125C165.29 125 168.03 124.73 174.44 122C179.7 119.78 185.67 115.24 186.37 110.18C188.56 113.18 190.32 120.12 190.3 128.28C190.3 138.37 186.86 140.2 185.22 140.92C183.58 141.64 180.39 141.92 177.31 141.4L177.25 146.47C177.25 146.47 183.64 151.13 177.79 151.97C170.47 152.97 164.71 146.56 164.71 146.56L163.86 133.38C163.04 133.769 162.12 133.896 161.226 133.744C160.331 133.592 159.505 133.168 158.86 132.53C157.837 131.358 157.252 129.868 157.203 128.313C157.154 126.759 157.644 125.235 158.59 124Z" fill="#FFA8A7"/>
<path d="M164.69 146.3L159.57 146.87C159.57 146.87 164.21 154.08 170.26 155.08C176.31 156.08 177.79 152.03 177.79 152.03C174.939 151.688 172.156 150.913 169.54 149.73C167.716 148.911 166.069 147.746 164.69 146.3Z" fill="#FAFAFA"/>
<path d="M177.25 146.11V146.53C178.08 147.53 180.71 150.85 177.79 152.03C177.79 152.03 181.97 154.33 182.72 151.58C183.47 148.83 179.99 146.51 179.99 146.51L177.25 146.11Z" fill="#FAFAFA"/>
<path d="M185.38 119.36L188.71 120.7C188.808 120.487 188.861 120.257 188.867 120.023C188.873 119.789 188.832 119.557 188.744 119.34C188.657 119.122 188.527 118.925 188.361 118.76C188.195 118.595 187.997 118.466 187.78 118.38C187.331 118.204 186.831 118.208 186.384 118.39C185.937 118.572 185.578 118.92 185.38 119.36Z" fill="#263238"/>
<path d="M177.78 125.23C177.808 125.516 177.752 125.804 177.618 126.059C177.484 126.313 177.278 126.523 177.026 126.661C176.774 126.8 176.487 126.862 176.2 126.839C175.913 126.816 175.64 126.71 175.413 126.533C175.186 126.356 175.016 126.117 174.924 125.844C174.832 125.572 174.822 125.278 174.895 125C174.968 124.722 175.121 124.471 175.336 124.279C175.55 124.087 175.815 123.962 176.1 123.92C176.296 123.895 176.496 123.909 176.687 123.961C176.878 124.013 177.057 124.103 177.213 124.225C177.369 124.347 177.5 124.498 177.597 124.671C177.694 124.843 177.756 125.033 177.78 125.23Z" fill="#263238"/>
<path d="M188.32 124.19C188.349 124.459 188.297 124.731 188.173 124.971C188.048 125.211 187.855 125.41 187.619 125.541C187.382 125.673 187.112 125.732 186.842 125.712C186.573 125.691 186.315 125.591 186.101 125.425C185.887 125.259 185.727 125.034 185.64 124.778C185.554 124.521 185.544 124.245 185.613 123.983C185.683 123.721 185.827 123.486 186.029 123.306C186.231 123.125 186.482 123.009 186.75 122.97C187.12 122.925 187.492 123.028 187.787 123.256C188.081 123.485 188.272 123.82 188.32 124.19Z" fill="#263238"/>
<path d="M181.43 123.31L181.84 131.65L186.74 130.41L181.43 123.31Z" fill="#F28F8F"/>
<path d="M177.59 133.89L181.24 134.7C181.197 134.943 181.106 135.175 180.971 135.381C180.837 135.588 180.663 135.766 180.458 135.904C180.254 136.042 180.024 136.138 179.782 136.185C179.54 136.232 179.291 136.231 179.05 136.18C178.563 136.052 178.142 135.745 177.872 135.321C177.601 134.896 177.5 134.386 177.59 133.89Z" fill="#F28F8F"/>
<path d="M177.31 141.46C174.31 141.08 168.31 139.36 167.31 136.96C167.693 138.175 168.44 139.243 169.45 140.02C171.27 141.57 177.29 143.33 177.29 143.33L177.31 141.46Z" fill="#F28F8F"/>
<path d="M144 183.501L132 177.5L144 153.001C147.65 147.606 151.549 146.79 158 147C160.971 158.645 159.52 163.064 154 169.5L144 183.501Z" fill="#F5F6F8"/>
<path d="M222.49 192.58L219.4 190.8C219.473 188.467 219.204 186.135 218.6 183.88L220.78 181.06C221.783 184.823 222.356 188.688 222.49 192.58Z" fill="#263238"/>
<path d="M222.61 193.57L222.49 192.57L222.39 192.63V192.57L219.39 190.79C218.99 191.94 218.39 193.5 217.9 195.24C211.54 198.92 200.84 205.06 200.84 205.06L204.13 229.91L225.57 217.46C226 217.22 226.319 216.822 226.46 216.35C227.38 213.79 223.62 197.73 222.61 193.57Z" fill="#37474F"/>
<path d="M222.49 192.58L200.85 205.07L197.76 203.29L219.4 190.8L222.49 192.58Z" fill="#455A64"/>
<path opacity="0.1" d="M222.49 192.58L200.85 205.07L197.76 203.29L219.4 190.8L222.49 192.58Z" fill="white"/>
<path opacity="0.2" d="M202.11 210.43C202.11 210.43 201.99 211 204.11 211.43C206.23 211.86 214.95 211.78 216.11 211.09C217.27 210.4 220.35 206.61 221.75 204.09C222.605 202.526 223.337 200.898 223.94 199.22L202.11 210.43Z" fill="black"/>
<path d="M197.76 203.29C195.96 208.49 192.53 221.86 193.05 223.86C193.57 225.86 196.2 227.38 197.76 228.27C199.32 229.16 203.91 231.82 204.95 228.86C205.99 225.9 200.85 205.07 200.85 205.07L197.76 203.29Z" fill="#263238"/>
<path d="M200.85 205.07C200.85 205.38 201.32 209.19 202.11 210.43C202.9 211.67 213.53 210.93 215.35 210.43C217.17 209.93 223.69 200.65 223.92 199.2C224.15 197.75 222.49 192.58 222.49 192.58L200.85 205.07Z" fill="#455A64"/>
<path d="M214.94 208.5C215 208.96 215.34 209.11 215.72 208.84C215.913 208.676 216.067 208.47 216.167 208.238C216.268 208.005 216.313 207.753 216.3 207.5C216.25 207.03 215.9 206.88 215.53 207.16C215.333 207.321 215.177 207.527 215.075 207.759C214.972 207.992 214.926 208.246 214.94 208.5Z" fill="#407BFF"/>
<path d="M212.17 173.74C200.82 175.74 197.76 203.29 197.76 203.29L200.85 205.07C201.41 188.13 208.29 176.63 211.05 174.73L212.17 173.74Z" fill="#263238"/>
<path d="M147.09 209.67C143.5 210.57 142.42 214.34 145.36 216.37C148.3 218.4 153.36 216.57 153.36 216.57L154.24 217.32C154.9 216.75 155.38 215.32 154.09 213.41C152.59 211.27 150.3 208.85 147.09 209.67Z" fill="#F28F8F"/>
<path d="M74.3499 198.38C68.2699 198.63 63.9599 200.01 59.5499 204.38C56.3199 207.57 48.4499 229.93 51.3099 245.09C53.5099 256.75 67.2399 262.91 77.8199 257.64C86.1699 253.49 87.3399 236.64 87.1799 228.97C87.0199 221.3 74.3499 198.38 74.3499 198.38Z" fill="#407BFF"/>
<path opacity="0.3" d="M74.3499 198.38C68.2699 198.63 63.9599 200.01 59.5499 204.38C56.3199 207.57 48.4499 229.93 51.3099 245.09C53.5099 256.75 67.2399 262.91 77.8199 257.64C86.1699 253.49 87.3399 236.64 87.1799 228.97C87.0199 221.3 74.3499 198.38 74.3499 198.38Z" fill="black"/>
<path d="M66.7501 203.93C66.7501 203.93 65.1301 201.76 61.2901 202.93C61.2901 202.93 57.2201 207.74 54.0201 216.87C54.0201 216.87 53.0201 216.87 53.6901 214.27C54.3601 211.67 56.9301 205.54 58.5701 203.38C60.2101 201.22 62.1601 197.86 73.8101 196.79C77.5201 196.46 88.3801 197.39 91.6601 198.56C96.7301 200.36 95.6601 203.29 95.6601 203.29L66.7501 203.93Z" fill="#407BFF"/>
<path opacity="0.5" d="M66.7501 203.93C66.7501 203.93 65.1301 201.76 61.2901 202.93C61.2901 202.93 57.2201 207.74 54.0201 216.87C54.0201 216.87 53.0201 216.87 53.6901 214.27C54.3601 211.67 56.9301 205.54 58.5701 203.38C60.2101 201.22 62.1601 197.86 73.8101 196.79C77.5201 196.46 88.3801 197.39 91.6601 198.56C96.7301 200.36 95.6601 203.29 95.6601 203.29L66.7501 203.93Z" fill="black"/>
<path d="M118.1 347.09C113.65 343.35 107.16 338.66 105.98 332.66C105.98 332.66 106.63 327.81 106.89 324.9C107.76 315.02 108.13 307.06 108.97 299.27C109.97 289.82 110.33 288.73 110.15 280.67C110.09 277.94 109.96 275.03 109.79 272.04C109.63 262.6 109.03 253.45 109.05 246.41C109.05 246.41 95.99 246.66 85.65 247.31C74.49 248.68 70.65 251.19 71.02 252.62C70.0646 257.635 69.5029 262.717 69.34 267.82C69.04 274.63 67.92 290.65 67.92 290.65C65.32 292.76 63.31 295.78 61.22 300.47C59.99 303.23 56.82 312.33 54.59 319.73C53.75 322.52 53.09 324.62 52.83 325.24C52.4781 326.282 51.9726 327.266 51.33 328.16C50.5097 328.98 49.645 329.754 48.74 330.48C47.9518 331.155 47.3522 332.023 47 333C46.8805 333.357 46.8263 333.733 46.84 334.11C46.89 335.44 47.84 336.56 48.45 337.73C49.517 339.813 49.9515 342.163 49.7 344.49C49.6262 346.546 50.1823 348.576 51.2939 350.308C52.4055 352.04 54.0195 353.39 55.92 354.18C58.1764 355.094 60.6825 355.186 63 354.44C63.94 354.13 65 353.51 65 352.52C64.9369 351.813 64.6333 351.149 64.14 350.64C60.9408 346.122 59.5364 340.576 60.2 335.08C60.68 331 63 326.44 65.08 323C69.86 315.13 75.08 307.37 79.43 300.87C84.78 292.87 85.27 291.5 87.12 283.87C88 280.27 88.96 276.44 89.91 272.61C91.19 278.52 93.08 288.99 93.5 291.31C93.5 291.65 93.43 292.09 93.39 292.59C92.58 296.16 92.56 298.69 92.64 303.47C92.64 306.47 94.64 319.13 95.73 326.78C95.97 328.48 96.24 330.18 96.4 331.88C96.4272 333.522 96.0238 335.142 95.23 336.58C94.5974 337.811 94.3799 339.214 94.61 340.58C94.6899 341 94.8279 341.407 95.02 341.79C95.71 343.04 97.11 343.44 98.23 344.16C99.65 345.07 100.87 346.8 102.05 348.02C103.188 349.337 104.54 350.453 106.05 351.32C107.9 352.035 109.857 352.438 111.84 352.51C112.976 352.566 114.115 352.482 115.23 352.26C116.259 352.206 117.273 351.983 118.23 351.6C118.631 351.414 118.974 351.124 119.224 350.759C119.474 350.395 119.621 349.97 119.65 349.53C119.57 349.039 119.392 348.57 119.125 348.151C118.859 347.731 118.51 347.37 118.1 347.09Z" fill="white"/>
<path d="M106 332.66C105.51 333.4 102.87 333.77 101.73 334.22C100.59 334.67 100.73 337.22 100.73 337.22C99.7301 337.22 99.5901 336.44 99.2401 335.11C98.6501 332.86 96.9801 332.86 96.4301 332.58V331.89C96.4301 331.89 95.8601 331.72 95.7401 332.8C95.5267 334.248 95.1922 335.677 94.7401 337.07C94.4101 338.07 93.8901 341.55 94.6301 342.61C95.2623 343.388 96.0762 343.999 97.0001 344.39C98.8483 345.375 100.446 346.77 101.67 348.47C102.67 349.9 105.54 353.23 111.96 353.29C118.38 353.35 120.16 351.04 120.16 351.04C120.592 350.275 120.719 349.376 120.517 348.521C120.315 347.667 119.798 346.92 119.07 346.43C116.42 344.43 114.84 344.12 112.07 341.02C109.838 338.391 107.809 335.596 106 332.66Z" fill="#37474F"/>
<path d="M60.51 333.29C58.8622 333.177 57.2884 332.563 56 331.53C53.88 330.06 53.07 334.29 53.07 334.29C52.41 333.8 52.07 333.29 52.54 331.29C52.97 329.46 52.97 328.38 51.93 327.34L52.4 326.34C52.4 326.34 51.83 325.34 50.56 327.7C49.29 330.06 46.17 330.9 45.73 334.44C46.007 335.738 46.5114 336.977 47.22 338.1C48.5132 339.909 49.1033 342.127 48.88 344.34C48.65 347.03 49.82 351.6 52.94 353.66C54.5726 354.789 56.4569 355.502 58.4284 355.736C60.3999 355.969 62.3986 355.717 64.25 355C64.6087 354.715 64.906 354.361 65.1239 353.958C65.3418 353.555 65.4759 353.112 65.5179 352.656C65.56 352.2 65.5092 351.74 65.3686 351.304C65.228 350.868 65.0006 350.465 64.7 350.12C62.6 347.12 61.7 345.73 61.02 343.12C60.34 340.51 60.51 333.29 60.51 333.29Z" fill="#37474F"/>
<path d="M70.5301 246C70.5301 246 69.6601 256.13 69.3501 262.08C69.0401 268.03 67.1701 290.62 67.1701 290.62C59.6601 297.41 56.3301 311.62 53.3401 322.12C53.3401 322.12 57.3401 327.8 63.8301 326.37C63.7501 325.95 82.8301 298.02 85.2901 292.01C87.4901 286.6 89.8801 274.86 89.8801 274.86C89.8801 274.86 92.6001 288.26 92.1901 290.78C90.5101 300.95 94.3201 318.06 95.0901 325.09C95.0901 325.09 95.8601 327.09 100.91 327.17C106.13 327.24 107.11 325.45 107.11 325.45C107.11 325.45 110.3 291.64 110.7 285.27C111.1 278.9 109.84 254.69 109.05 246.38L70.5301 246Z" fill="#2D56B2"/>
<path d="M89.8799 274.89L90.9999 268.55C90.9999 268.55 99.4899 267.94 103.25 263.74C103.25 263.74 101.95 269.29 93.0699 270.07L91.8799 276.2L92.1799 288.57C91.5299 284 90.6999 279.92 89.8799 274.89Z" fill="#37474F"/>
<path d="M72.2199 202.56C67.8199 203.36 66.5299 206.06 66.0399 209.76C65.7321 213.123 66.0508 216.513 66.9799 219.76L69.3699 234.67L69.8299 252.67C75.2999 258.73 97.5399 260.87 109.68 252.19C109.68 252.19 108.68 221.14 107.87 215.06C106.4 204.51 102.73 201.29 97.6599 201.63L82.3399 202.08L72.2199 202.56Z" fill="#FAFAFA"/>
<path d="M95.8 201.68C98.32 203.43 110.06 214.43 109.32 241.68C109.32 241.68 110.7 233.19 111.32 227.53C111.94 221.87 109.07 205.8 101.6 202C99.7616 201.227 97.7124 201.114 95.8 201.68Z" fill="#407BFF"/>
<path opacity="0.4" d="M95.8 201.68C98.32 203.43 110.06 214.43 109.32 241.68C109.32 241.68 110.7 233.19 111.32 227.53C111.94 221.87 109.07 205.8 101.6 202C99.7616 201.227 97.7124 201.114 95.8 201.68Z" fill="black"/>
<path d="M77.6599 202.21C77.6599 202.21 83.8599 206.63 84.2699 216.78C85.2699 242.45 68.3899 249.15 68.3899 249.15C66.7899 245.9 67.8299 242.78 69.2099 239.69C71.917 236.886 74.0346 233.568 75.4379 229.932C76.8411 226.296 77.5015 222.415 77.3799 218.52C77.0299 209.17 72.4399 203.89 70.1099 203.15C72.4838 202.117 75.1052 201.791 77.6599 202.21Z" fill="#407BFF"/>
<path opacity="0.4" d="M77.6599 202.21C77.6599 202.21 83.8599 206.63 84.2699 216.78C85.2699 242.45 68.3899 249.15 68.3899 249.15C66.7899 245.9 67.8299 242.78 69.2099 239.69C71.917 236.886 74.0346 233.568 75.4379 229.932C76.8411 226.296 77.5015 222.415 77.3799 218.52C77.0299 209.17 72.4399 203.89 70.1099 203.15C72.4838 202.117 75.1052 201.791 77.6599 202.21Z" fill="black"/>
<path d="M109.058 174.861C109.12 168.675 104.326 163.613 98.3502 163.553C92.3747 163.494 87.4808 168.46 87.4193 174.645C87.3577 180.831 92.1519 185.893 98.1273 185.952C104.103 186.012 108.997 181.046 109.058 174.861Z" fill="#263238"/>
<path d="M76 182.85C76 182.85 77.78 191.65 78.51 193.1C78.9887 193.994 79.7894 194.673 80.75 195L80.68 188.83L76 182.85Z" fill="#263238"/>
<path d="M78.4299 170.3C77.7766 170.216 77.1127 170.282 76.4889 170.494C75.8651 170.705 75.2977 171.056 74.8299 171.52C73.2799 173.08 74.0899 178.01 75.9599 182.85L79.4699 183.29L78.4299 170.3Z" fill="#263238"/>
<path d="M80.5299 183.3C79.8199 183.72 78.8299 182.3 77.9699 181.43C77.1099 180.56 74.2699 179.24 72.8299 182.21C71.3899 185.18 73.9999 189.29 76.2399 190C80.0799 191.24 80.6799 188.78 80.6799 188.78L80.8399 202.68C81.6713 204.555 82.9553 206.195 84.5768 207.452C86.1982 208.708 88.1063 209.543 90.1299 209.88C96.9499 210.88 96.9499 205.14 94.7299 202.36V198.46C96.4335 198.567 98.1434 198.412 99.7999 198C101.98 197.43 103.64 196.14 105.11 192.85C107.11 188.41 107.38 183.55 106.05 174.4C104.51 163.81 91.4999 163.4 84.7799 167.51C78.0599 171.62 80.5299 183.3 80.5299 183.3Z" fill="#FFA8A7"/>
<path d="M82.9301 176.29C82.2801 179.29 81.7101 184.48 80.5201 184.49C80.1601 184.49 78.8401 182.24 77.9701 181.43C77.5801 181.07 77.5801 180.3 77.5501 179.81C77.4501 177.973 77.4802 176.132 77.6401 174.3C77.8101 172.3 77.5201 170.16 78.1601 168.3C78.7011 166.865 79.7318 165.668 81.0701 164.92C84.0101 163.2 87.8701 163.43 91.1501 162.81C95.017 162.17 98.7407 160.853 102.15 158.92L103.15 158.32C103.442 158.114 103.794 158.012 104.15 158.03C104.299 158.061 104.438 158.127 104.557 158.22C104.677 158.314 104.774 158.433 104.84 158.57C104.971 158.843 105.052 159.138 105.08 159.44C105.22 160.354 105.22 161.285 105.08 162.2C105.073 163.017 104.849 163.818 104.43 164.52L106.83 163.06C106.977 162.935 107.167 162.87 107.36 162.88C107.69 162.94 107.81 163.34 107.83 163.67C107.862 165.048 107.546 166.411 106.912 167.635C106.277 168.858 105.345 169.902 104.2 170.67C101.881 172.194 99.1839 173.042 96.4101 173.12C93.6601 173.29 90.9001 173.02 88.1401 172.94C87.1401 172.94 85.5401 172.79 84.6301 173.34C84.1582 173.687 83.7636 174.129 83.471 174.637C83.1784 175.144 82.9942 175.707 82.9301 176.29Z" fill="#263238"/>
<path d="M78.4299 171.08L74.1799 168.75C74.3221 168.467 74.52 168.215 74.7618 168.011C75.0035 167.806 75.2842 167.653 75.5868 167.559C75.8894 167.466 76.2078 167.434 76.5228 167.467C76.8378 167.5 77.143 167.596 77.4199 167.75C77.9805 168.072 78.3971 168.596 78.5847 169.215C78.7724 169.833 78.7171 170.5 78.4299 171.08Z" fill="#263238"/>
<path d="M94.7599 198.48C94.7599 198.48 87.9699 197.71 84.8999 195.69C83.6584 194.943 82.6263 193.893 81.8999 192.64C82.1773 193.952 82.7635 195.179 83.6099 196.22C86.6099 199.86 94.7699 200.63 94.7699 200.63L94.7599 198.48Z" fill="#F28F8F"/>
<path d="M92.5199 181.86C92.5061 182.14 92.4102 182.41 92.2441 182.636C92.078 182.863 91.849 183.035 91.5856 183.132C91.3223 183.229 91.0362 183.246 90.7631 183.182C90.49 183.117 90.2419 182.974 90.0497 182.769C89.8575 182.565 89.7297 182.308 89.6822 182.032C89.6348 181.755 89.6697 181.471 89.7827 181.214C89.8958 180.957 90.0819 180.739 90.3179 180.587C90.5539 180.435 90.8293 180.356 91.1099 180.36C91.3012 180.365 91.4896 180.408 91.6642 180.486C91.8388 180.565 91.9962 180.677 92.1273 180.816C92.2584 180.956 92.3605 181.12 92.4279 181.299C92.4953 181.478 92.5266 181.669 92.5199 181.86Z" fill="#263238"/>
<path d="M90.7101 177.53L87.6501 179.18C87.4385 178.76 87.3973 178.275 87.5353 177.826C87.6732 177.377 87.9795 176.998 88.3901 176.77C88.5916 176.664 88.8124 176.599 89.0393 176.58C89.2662 176.561 89.4946 176.588 89.711 176.659C89.9274 176.73 90.1273 176.843 90.2989 176.993C90.4706 177.142 90.6104 177.325 90.7101 177.53Z" fill="#263238"/>
<path d="M91.64 189.53L97.24 191.7C97.1079 192.072 96.9037 192.414 96.639 192.707C96.3744 193 96.0545 193.238 95.6978 193.407C95.341 193.576 94.9544 193.673 94.5601 193.692C94.1658 193.712 93.7716 193.653 93.4 193.52C92.6486 193.21 92.0459 192.622 91.7179 191.879C91.3899 191.135 91.362 190.293 91.64 189.53Z" fill="#9A4A4D"/>
<path d="M104.78 178.46L102 176.3C102.132 176.115 102.301 175.958 102.496 175.84C102.69 175.722 102.907 175.645 103.132 175.613C103.357 175.581 103.587 175.596 103.807 175.655C104.026 175.715 104.232 175.818 104.41 175.96C104.781 176.249 105.027 176.67 105.096 177.136C105.165 177.601 105.052 178.075 104.78 178.46Z" fill="#263238"/>
<path d="M104 181.31C104.003 181.501 103.967 181.691 103.896 181.869C103.825 182.046 103.72 182.208 103.586 182.344C103.452 182.481 103.293 182.59 103.117 182.665C102.94 182.739 102.751 182.778 102.56 182.78C102.162 182.78 101.781 182.622 101.499 182.34C101.218 182.059 101.06 181.678 101.06 181.28C101.06 180.882 101.218 180.5 101.499 180.219C101.781 179.938 102.162 179.78 102.56 179.78C102.757 179.781 102.951 179.822 103.131 179.9C103.311 179.979 103.473 180.093 103.608 180.236C103.743 180.379 103.847 180.548 103.914 180.733C103.982 180.917 104.011 181.114 104 181.31Z" fill="#263238"/>
<path d="M96.45 180.32L96.8 187.95L100.79 186.63L96.45 180.32Z" fill="#F28F8F"/>
<path d="M92.6699 210.13C92.6699 210.13 84.1399 207.28 80.8299 202.03V198.81C78.7199 199.05 77.6699 202.35 77.6699 202.35C77.6699 202.35 77.8599 206.6 80.3899 209.35C82.9199 212.1 87.1599 211.09 87.1599 211.09C87.1599 211.09 88.9199 213.39 89.8599 213.69C90.7999 213.99 92.6699 210.13 92.6699 210.13Z" fill="#E0E0E0"/>
<path d="M92.6699 210.13C93.9299 209.13 95.2799 205.35 94.7299 202.38C94.7299 202.16 94.7299 200.24 94.7299 200.24C95.2222 200.261 95.692 200.452 96.0599 200.78C96.614 201.409 97.1219 202.077 97.5799 202.78C98.0885 204.315 98.4829 205.886 98.7599 207.48C98.742 208.085 98.5413 208.671 98.1844 209.16C97.8274 209.649 97.3308 210.018 96.7599 210.22C96.8345 211.094 96.7532 211.974 96.5199 212.82C96.2299 213.47 92.6699 210.13 92.6699 210.13Z" fill="#E0E0E0"/>
<path d="M62.4701 249.45C64.6301 248.72 66.2101 247.61 70.4701 244.05C73.9978 241.109 77.2329 237.834 80.1301 234.27C80.6221 233.685 81.1462 233.127 81.7001 232.6C82.6998 231.735 83.5898 230.751 84.3501 229.67C86.0701 227.11 86.1101 225.43 86.3001 222.35C86.4901 219.27 86.4101 215 85.0801 212C84.8901 211.55 83.7601 211.29 83.4401 211.38C83.6201 212.06 83.7401 212.75 83.8701 213.38C83.2435 214.927 82.3761 216.364 81.3001 217.64C79.7301 219.45 78.0301 220.44 77.8601 220.05C77.6901 219.66 78.2401 218.47 78.0701 216.52C77.9001 214.57 77.3701 213.87 76.7801 213.72C75.8401 213.47 75.7801 214.49 75.4201 216.04C74.9301 218 74.1301 219 74.0001 221.7C73.8901 224.09 74.0001 225.06 72.8901 226.42C71.6603 227.544 70.3611 228.589 69.0001 229.55C69.0001 229.55 70.4301 225.15 71.8501 220.76C74.6201 212.16 73.5301 204.47 70.1401 203.15C65.2901 203.37 62.3101 205.31 60.0801 212.32C57.7101 219.78 56.9001 222.95 54.9601 237.58C53.4901 248.43 58.8801 250.66 62.4701 249.45Z" fill="#FFA8A7"/>
<path d="M69.0001 229.55C65.9301 231.79 59.2101 235.01 58.3101 238.63C58.3101 238.63 58.4601 235.75 62.5201 232.33C64.7845 230.398 67.2138 228.668 69.7801 227.16L69.0001 229.55Z" fill="#F28F8F"/>
<path d="M70.1099 203.15C68.4399 202.77 65.6299 203.34 63.1799 205.52C60.7299 207.7 59.4799 211.98 58.2899 215.83C57.0999 219.68 55.1599 229.83 55.1599 229.83C58.4664 230.997 61.9269 231.671 65.4299 231.83C65.4299 231.83 68.1699 230.09 69.5199 229.14C69.5199 229.14 72.2899 220.3 73.0799 218.05C73.8699 215.8 74.9999 204.79 70.1099 203.15Z" fill="#F0F0F0"/>
<path opacity="0.6" d="M92.9999 191.23C92.5165 191.232 92.0452 191.382 91.6499 191.66C91.7889 192.082 92.0198 192.467 92.3259 192.789C92.6319 193.111 93.0056 193.36 93.4199 193.52C94.0437 193.744 94.7261 193.744 95.3499 193.52C95.3293 192.909 95.0732 192.329 94.6353 191.903C94.1973 191.476 93.6114 191.235 92.9999 191.23Z" fill="#F28F8F"/>
<path d="M405.59 91.7601L410.26 83.0001L416.61 78.0001V71.3101L428.12 78.0001L418 78.7601L413.05 87.3301C412.974 87.462 412.859 87.5669 412.72 87.6301L405.59 91.7601Z" fill="#407BFF"/>
<path opacity="0.2" d="M405.59 91.7602L410.26 83.0002L406.5 72.1202V65.4702L418 72.1202V78.7602L413.05 87.3302C412.974 87.4622 412.859 87.5671 412.72 87.6302L405.59 91.7602Z" fill="black"/>
<path d="M378.05 37.7801C378.119 36.5807 378.467 35.4139 379.066 34.3724C379.665 33.3309 380.498 32.4433 381.5 31.7801L384.3 30.1501C385.364 29.5979 386.546 29.3096 387.745 29.3096C388.944 29.3096 390.126 29.5979 391.19 30.1501L439.45 58.2001C440.449 58.8656 441.28 59.7539 441.876 60.7951C442.473 61.8363 442.82 63.0019 442.89 64.2001V86.1001C442.822 87.2987 442.476 88.4649 441.879 89.5063C441.281 90.5477 440.45 91.4358 439.45 92.1001L436.64 93.7401C435.574 94.2876 434.393 94.5731 433.195 94.5731C431.997 94.5731 430.816 94.2876 429.75 93.7401L410.82 82.7401L405.89 91.3801C405.821 91.5036 405.717 91.6043 405.591 91.6698C405.466 91.7353 405.324 91.7628 405.183 91.749C405.042 91.7352 404.908 91.6807 404.797 91.5921C404.687 91.5036 404.604 91.3847 404.56 91.2501L399.35 76.0401L381.5 65.7201C380.498 65.0575 379.664 64.17 379.065 63.1284C378.466 62.0868 378.119 60.9197 378.05 59.7201V37.7801Z" fill="#407BFF"/>
<path opacity="0.2" d="M430.49 94.1701C431.484 94.5394 432.543 94.6989 433.602 94.6387C434.66 94.5785 435.695 94.2997 436.64 93.8201L439.45 92.1801C440.45 91.5163 441.282 90.6284 441.879 89.5869C442.477 88.5453 442.823 87.3788 442.89 86.1801V64.2401C442.838 62.9397 442.441 61.6766 441.74 60.5801L432.17 66.1001C432.786 67.1305 433.13 68.3004 433.17 69.5001V91.8501C433.18 93.7501 432 94.6601 430.49 94.1701Z" fill="black"/>
<path opacity="0.4" d="M439.45 58.2001L391.19 30.1101C390.126 29.5578 388.944 29.2695 387.745 29.2695C386.546 29.2695 385.364 29.5578 384.3 30.1101L381.5 31.7401C379.951 32.7714 378.82 34.3206 378.31 36.1101C378.82 34.9301 380.05 34.6001 381.5 35.4501L429.76 63.5501C430.784 64.1883 431.622 65.085 432.19 66.1501L441.74 60.5801C441.177 59.6154 440.392 58.7994 439.45 58.2001Z" fill="white"/>
<path d="M391.06 51.2003L391.59 47.2003C391.59 47.0803 391.64 47.0103 391.69 46.9903C391.713 46.978 391.739 46.9716 391.765 46.9716C391.791 46.9716 391.817 46.978 391.84 46.9903L392.92 47.6203C392.978 47.6598 393.023 47.7154 393.05 47.7803C393.086 47.848 393.103 47.9239 393.1 48.0003V48.1003L392 55.5403C391.998 55.589 391.986 55.6366 391.963 55.6799C391.941 55.7231 391.909 55.7608 391.87 55.7903C391.829 55.8196 391.78 55.8354 391.73 55.8354C391.68 55.8354 391.631 55.8196 391.59 55.7903L390.9 55.4003C390.786 55.3235 390.696 55.2161 390.64 55.0903C390.573 54.9572 390.522 54.8161 390.49 54.6703L389.87 51.4403L389.28 54.0003C389.26 54.0959 389.211 54.1832 389.14 54.2503C389.102 54.282 389.054 54.2994 389.005 54.2994C388.956 54.2994 388.908 54.282 388.87 54.2503L388.19 53.8603C388.067 53.7811 387.967 53.6707 387.9 53.5403C387.833 53.416 387.789 53.2804 387.77 53.1403L386.71 44.4903C386.706 44.4571 386.706 44.4235 386.71 44.3903C386.705 44.3294 386.723 44.269 386.76 44.2203C386.778 44.2048 386.801 44.1963 386.825 44.1963C386.849 44.1963 386.872 44.2048 386.89 44.2203L387.97 44.8403C388.035 44.8844 388.09 44.9424 388.13 45.0103C388.185 45.1124 388.219 45.2247 388.23 45.3403L388.76 49.9403L389.24 47.9403C389.256 47.8728 389.283 47.8085 389.32 47.7503C389.32 47.6803 389.43 47.6703 389.52 47.7503L390.3 48.2003C390.4 48.2576 390.475 48.3504 390.51 48.4603C390.538 48.5491 390.561 48.6392 390.58 48.7303L391.06 51.2003Z" fill="#FAFAFA"/>
<path d="M395.25 55.3003C395.246 55.4762 395.27 55.6517 395.32 55.8203C395.364 55.9632 395.425 56.1008 395.5 56.2303C395.564 56.3423 395.645 56.4436 395.74 56.5303C395.816 56.6029 395.9 56.6667 395.99 56.7203C396.113 56.794 396.249 56.8448 396.39 56.8703C396.477 56.8745 396.563 56.8459 396.63 56.7903L396.76 56.7203C396.81 56.7245 396.858 56.7417 396.9 56.7703L397.97 57.3903C398.036 57.4301 398.089 57.4881 398.122 57.5573C398.156 57.6265 398.169 57.7039 398.16 57.7803C398.144 57.9179 398.1 58.0507 398.03 58.1703C397.942 58.3385 397.811 58.4801 397.65 58.5803C397.45 58.7066 397.216 58.7694 396.98 58.7603C396.624 58.7388 396.279 58.6251 395.98 58.4303C395.622 58.2251 395.301 57.9614 395.03 57.6503C394.746 57.3224 394.51 56.9553 394.33 56.5603C394.136 56.1384 393.992 55.6954 393.9 55.2403C393.802 54.7397 393.755 54.2304 393.76 53.7203C393.75 53.286 393.797 52.8524 393.9 52.4303C393.974 52.12 394.122 51.832 394.33 51.5903C394.516 51.4025 394.766 51.2918 395.03 51.2803C395.367 51.288 395.696 51.3883 395.98 51.5703C396.372 51.802 396.712 52.1117 396.98 52.4803C397.26 52.8496 397.491 53.2528 397.67 53.6803C397.861 54.1034 398.005 54.546 398.1 55.0003C398.177 55.426 398.217 55.8576 398.22 56.2903V56.6503C398.227 56.7222 398.205 56.7938 398.16 56.8503C398.138 56.87 398.109 56.8808 398.08 56.8808C398.05 56.8808 398.022 56.87 398 56.8503L395.25 55.3003ZM395.99 53.3003C395.76 53.1603 395.59 53.1703 395.46 53.3003C395.329 53.4694 395.255 53.6762 395.25 53.8903L396.74 54.7503C396.709 54.4608 396.635 54.1776 396.52 53.9103C396.42 53.6521 396.237 53.4341 396 53.2903L395.99 53.3003Z" fill="#FAFAFA"/>
<path d="M400.87 60.7801C400.877 60.852 400.855 60.9236 400.81 60.9801C400.788 60.9997 400.76 61.0106 400.73 61.0106C400.7 61.0106 400.672 60.9997 400.65 60.9801L399.65 60.3801C399.58 60.333 399.524 60.2672 399.49 60.1901C399.451 60.1018 399.431 60.0065 399.43 59.9101V51.5901C399.424 51.5151 399.445 51.4405 399.49 51.3801C399.513 51.3622 399.541 51.3525 399.57 51.3525C399.599 51.3525 399.627 51.3622 399.65 51.3801L400.65 51.9801C400.718 52.0295 400.773 52.0947 400.81 52.1701C400.848 52.2586 400.868 52.3537 400.87 52.4501V60.7801Z" fill="#FAFAFA"/>
<path d="M403.55 58.9202C403.55 59.0402 403.55 59.1902 403.55 59.3602C403.55 59.5302 403.55 59.6802 403.55 59.8102C403.562 60.1135 403.641 60.4104 403.78 60.6802C403.889 60.9225 404.071 61.125 404.3 61.2602C404.359 61.3068 404.426 61.3414 404.498 61.362C404.57 61.3826 404.646 61.3888 404.72 61.3802C404.772 61.367 404.821 61.3422 404.863 61.3076C404.904 61.2729 404.938 61.2294 404.96 61.1802C404.982 61.1346 405.012 61.0938 405.05 61.0602C405.05 61.0602 405.13 61.0602 405.2 61.0602L406.28 61.6802C406.35 61.7272 406.406 61.7931 406.44 61.8702C406.483 61.9572 406.503 62.0533 406.5 62.1502C406.483 62.3336 406.446 62.5147 406.39 62.6902C406.327 62.9087 406.21 63.1081 406.05 63.2702C405.867 63.4402 405.63 63.5395 405.38 63.5502C404.995 63.5509 404.619 63.436 404.3 63.2202C403.982 63.0279 403.693 62.7923 403.44 62.5202C403.165 62.2183 402.929 61.8822 402.74 61.5202C402.536 61.1394 402.375 60.7369 402.26 60.3202C402.142 59.8899 402.078 59.4464 402.07 59.0002C402.07 58.8702 402.07 58.7002 402.07 58.4802C402.07 58.2602 402.07 58.1102 402.07 57.9802C402.066 57.605 402.131 57.2323 402.26 56.8802C402.355 56.6221 402.521 56.3966 402.74 56.2302C402.948 56.0965 403.194 56.0367 403.44 56.0602C403.746 56.0831 404.042 56.1828 404.3 56.3502C404.714 56.5786 405.081 56.8841 405.38 57.2502C405.64 57.5791 405.864 57.9344 406.05 58.3102C406.199 58.6302 406.313 58.9655 406.39 59.3102C406.443 59.5271 406.48 59.7477 406.5 59.9702C406.506 60.0059 406.503 60.0424 406.493 60.077C406.482 60.1117 406.464 60.1435 406.44 60.1702C406.417 60.188 406.389 60.1977 406.36 60.1977C406.331 60.1977 406.303 60.188 406.28 60.1702L405.2 59.5502C405.136 59.5123 405.084 59.4568 405.05 59.3902C405.014 59.3125 404.984 59.2323 404.96 59.1502C404.904 58.9822 404.824 58.8236 404.72 58.6802C404.611 58.5281 404.467 58.4045 404.3 58.3202C404.08 58.1902 403.91 58.1802 403.78 58.3202C403.703 58.3995 403.643 58.4936 403.604 58.5967C403.564 58.6998 403.546 58.8098 403.55 58.9202Z" fill="#FAFAFA"/>
<path d="M411.93 63.7202C411.93 63.8502 411.93 64.0202 411.93 64.2202C411.93 64.4202 411.93 64.5802 411.93 64.7002C411.924 65.041 411.864 65.3787 411.75 65.7002C411.661 65.9587 411.506 66.1896 411.3 66.3702C411.101 66.5273 410.853 66.6088 410.6 66.6002C410.277 66.5754 409.965 66.4724 409.69 66.3002C409.346 66.0958 409.036 65.8394 408.77 65.5402C408.499 65.2369 408.268 64.9009 408.08 64.5402C407.883 64.1618 407.729 63.7627 407.62 63.3502C407.512 62.9418 407.452 62.5224 407.44 62.1002C407.44 61.9702 407.44 61.8002 407.44 61.6002C407.44 61.4002 407.44 61.2402 407.44 61.1202C407.442 60.7798 407.5 60.4421 407.61 60.1202C407.698 59.8583 407.857 59.6262 408.07 59.4502C408.268 59.2902 408.516 59.2052 408.77 59.2102C409.097 59.2308 409.414 59.3341 409.69 59.5102C410.034 59.7112 410.341 59.968 410.6 60.2702C410.871 60.576 411.105 60.9115 411.3 61.2702C411.494 61.6488 411.645 62.048 411.75 62.4602C411.859 62.8717 411.919 63.2946 411.93 63.7202ZM408.93 62.9002C408.938 63.2093 409.013 63.5131 409.15 63.7902C409.273 64.0299 409.46 64.2307 409.69 64.3702C409.91 64.5002 410.08 64.5102 410.22 64.3702C410.299 64.2883 410.359 64.1907 410.397 64.0838C410.435 63.9769 410.45 63.8632 410.44 63.7502C410.451 63.6104 410.451 63.47 410.44 63.3302C410.451 63.1804 410.451 63.03 410.44 62.8802C410.432 62.5742 410.357 62.2737 410.22 62.0002C410.104 61.7592 409.92 61.5576 409.69 61.4202C409.611 61.3647 409.517 61.3349 409.42 61.3349C409.324 61.3349 409.229 61.3647 409.15 61.4202C409.071 61.5039 409.011 61.6032 408.973 61.7118C408.935 61.8203 408.921 61.9356 408.93 62.0502C408.93 62.1702 408.93 62.3102 408.93 62.4702C408.93 62.6302 408.92 62.7702 408.93 62.9002Z" fill="#FAFAFA"/>
<path d="M419.89 71.7603C419.894 71.8336 419.869 71.9054 419.82 71.9603C419.798 71.98 419.77 71.9909 419.74 71.9909C419.711 71.9909 419.682 71.98 419.66 71.9603L418.66 71.3903C418.59 71.3409 418.538 71.271 418.51 71.1903C418.462 71.1049 418.438 71.0082 418.44 70.9103V67.6703C418.455 67.3304 418.404 66.9909 418.29 66.6703C418.203 66.4489 418.044 66.2625 417.84 66.1403C417.65 66.0303 417.5 66.0403 417.4 66.1403C417.271 66.3895 417.219 66.6714 417.25 66.9503V70.2003C417.253 70.2765 417.228 70.3513 417.18 70.4103C417.157 70.4281 417.129 70.4378 417.1 70.4378C417.071 70.4378 417.043 70.4281 417.02 70.4103L416.02 69.8303C415.951 69.785 415.898 69.7183 415.87 69.6403C415.824 69.5544 415.799 69.458 415.8 69.3603V66.1503C415.817 65.8103 415.766 65.4704 415.65 65.1503C415.568 64.9255 415.409 64.7375 415.2 64.6203C415.01 64.5103 414.86 64.5103 414.76 64.6203C414.62 64.8548 414.564 65.1297 414.6 65.4003V68.6903C414.607 68.7622 414.585 68.8339 414.54 68.8903C414.518 68.91 414.49 68.9209 414.46 68.9209C414.431 68.9209 414.402 68.91 414.38 68.8903L413.38 68.2903C413.31 68.2432 413.255 68.1774 413.22 68.1003C413.181 68.012 413.161 67.9167 413.16 67.8203V61.9303C413.154 61.8584 413.175 61.7867 413.22 61.7303C413.23 61.7194 413.243 61.7107 413.257 61.7048C413.27 61.6989 413.285 61.6958 413.3 61.6958C413.315 61.6958 413.33 61.6989 413.344 61.7048C413.357 61.7107 413.37 61.7194 413.38 61.7303L414.38 62.3003C414.448 62.3498 414.503 62.415 414.54 62.4903C414.578 62.5788 414.599 62.674 414.6 62.7703V63.0603C414.706 62.9112 414.862 62.8048 415.04 62.7603C415.255 62.7336 415.472 62.787 415.65 62.9103C415.946 63.0837 416.205 63.315 416.41 63.5903C416.658 63.9117 416.847 64.2738 416.97 64.6603C417.035 64.5581 417.12 64.4699 417.219 64.4012C417.319 64.3325 417.431 64.2845 417.55 64.2603C417.809 64.2282 418.071 64.2884 418.29 64.4303C418.539 64.5759 418.762 64.7618 418.95 64.9803C419.161 65.2317 419.336 65.511 419.47 65.8103C419.623 66.1634 419.737 66.5323 419.81 66.9103C419.894 67.3587 419.934 67.8142 419.93 68.2703L419.89 71.7603Z" fill="#FAFAFA"/>
<path d="M422.5 71.0003C422.501 71.176 422.524 71.3508 422.57 71.5203C422.612 71.6641 422.673 71.802 422.75 71.9303C422.814 72.0423 422.895 72.1436 422.99 72.2303C423.069 72.3032 423.157 72.367 423.25 72.4203C423.365 72.504 423.499 72.5557 423.64 72.5703C423.726 72.5793 423.812 72.5542 423.88 72.5003C423.919 72.4695 423.963 72.4458 424.01 72.4303C424.01 72.4303 424.09 72.4303 424.15 72.4803L425.23 73.1003C425.292 73.1407 425.342 73.1976 425.374 73.2647C425.406 73.3319 425.418 73.4065 425.41 73.4803C425.4 73.6191 425.355 73.7531 425.28 73.8703C425.19 74.0395 425.06 74.1838 424.9 74.2903C424.698 74.4098 424.465 74.4688 424.23 74.4603C423.873 74.4497 423.527 74.3388 423.23 74.1403C422.855 73.9348 422.517 73.6678 422.23 73.3503C421.948 73.0244 421.712 72.6609 421.53 72.2703C421.336 71.8449 421.192 71.3987 421.1 70.9403C421.007 70.439 420.96 69.9302 420.96 69.4203C420.955 68.9895 421.002 68.5597 421.1 68.1403C421.168 67.8278 421.317 67.5384 421.53 67.3003C421.621 67.2052 421.729 67.1289 421.849 67.0757C421.969 67.0225 422.099 66.9935 422.23 66.9903C422.585 66.9813 422.935 67.0826 423.23 67.2803C423.62 67.5103 423.96 67.8163 424.23 68.1803C424.519 68.5489 424.755 68.9562 424.93 69.3903C425.105 69.8183 425.233 70.2643 425.31 70.7203C425.387 71.1494 425.428 71.5843 425.43 72.0203V72.3703C425.438 72.4454 425.417 72.5208 425.37 72.5803C425.347 72.5981 425.319 72.6078 425.29 72.6078C425.261 72.6078 425.233 72.5981 425.21 72.5803L422.5 71.0003ZM423.25 69.0003C423.01 68.8703 422.84 68.8703 422.72 69.0003C422.585 69.1681 422.508 69.3751 422.5 69.5903L423.99 70.4503C423.968 70.1594 423.893 69.8749 423.77 69.6103C423.669 69.355 423.486 69.1405 423.25 69.0003Z" fill="#FAFAFA"/>
<path d="M394.46 68.4305C394.391 68.3811 394.338 68.3111 394.31 68.2305C394.264 68.1482 394.239 68.0551 394.24 67.9605V59.7505C394.236 59.7125 394.241 59.6742 394.253 59.638C394.265 59.6018 394.284 59.5686 394.31 59.5405C394.331 59.5234 394.358 59.5142 394.385 59.5142C394.412 59.5142 394.439 59.5234 394.46 59.5405L397.12 61.0805C397.474 61.2789 397.789 61.5398 398.05 61.8505C398.304 62.1502 398.51 62.4876 398.66 62.8505C398.806 63.1708 398.917 63.5061 398.99 63.8505C399.048 64.1808 399.078 64.5152 399.08 64.8505C399.087 65.0551 399.071 65.2598 399.03 65.4605C399.002 65.5983 398.958 65.7325 398.9 65.8605C398.862 65.9443 398.811 66.0218 398.75 66.0905L398.62 66.2005C398.823 66.5073 398.975 66.845 399.07 67.2005C399.162 67.5802 399.205 67.9699 399.2 68.3605C399.208 68.6967 399.174 69.0325 399.1 69.3605C399.054 69.619 398.94 69.8605 398.77 70.0605C398.696 70.1446 398.605 70.2128 398.504 70.261C398.402 70.3091 398.292 70.3361 398.18 70.3405C397.863 70.3336 397.554 70.2365 397.29 70.0605L394.46 68.4305ZM397.55 64.0005C397.555 63.793 397.51 63.5875 397.42 63.4005C397.339 63.2281 397.211 63.0824 397.05 62.9805L395.77 62.2505V63.7005L397.05 64.4405C397.21 64.5405 397.34 64.5405 397.42 64.4405C397.47 64.3795 397.507 64.3092 397.53 64.2336C397.552 64.1581 397.559 64.0788 397.55 64.0005ZM395.77 67.2005L397.13 67.9905C397.29 68.0805 397.43 68.0805 397.52 67.9905C397.576 67.9288 397.619 67.8559 397.644 67.7766C397.67 67.6973 397.679 67.6134 397.67 67.5305C397.671 67.3084 397.619 67.0893 397.52 66.8905C397.444 66.7014 397.306 66.5431 397.13 66.4405L395.77 65.6505V67.2005Z" fill="#FAFAFA"/>
<path d="M400.15 69.8303C400.125 69.6191 400.149 69.4048 400.222 69.205C400.295 69.0051 400.415 68.8253 400.57 68.6803C400.781 68.5799 401.012 68.5278 401.245 68.5278C401.479 68.5278 401.709 68.5799 401.92 68.6803L402.92 68.9803C402.92 68.7883 402.883 68.598 402.81 68.4203C402.739 68.2445 402.608 68.0994 402.44 68.0103C402.31 67.9303 402.22 67.9003 402.15 67.9203C402.096 67.938 402.045 67.9651 402 68.0003C401.979 68.0117 401.955 68.0177 401.93 68.0177C401.906 68.0177 401.882 68.0117 401.86 68.0003C401.807 67.9902 401.756 67.9698 401.71 67.9403L400.66 67.3303C400.599 67.2959 400.55 67.2435 400.52 67.1803C400.5 67.1049 400.5 67.0257 400.52 66.9503C400.527 66.766 400.582 66.5868 400.68 66.4303C400.78 66.2786 400.923 66.1602 401.09 66.0903C401.285 66.0069 401.499 65.9758 401.71 66.0003C401.987 66.0327 402.253 66.1248 402.49 66.2703C402.817 66.4533 403.111 66.69 403.36 66.9703C403.608 67.2327 403.816 67.529 403.98 67.8503C404.141 68.1676 404.262 68.5035 404.34 68.8503C404.418 69.2083 404.455 69.574 404.45 69.9403V73.7903C404.457 73.8622 404.435 73.9339 404.39 73.9903C404.368 74.01 404.34 74.0209 404.31 74.0209C404.281 74.0209 404.252 74.01 404.23 73.9903L403.23 73.3903C403.16 73.3433 403.105 73.2774 403.07 73.2003C403.031 73.112 403.011 73.0168 403.01 72.9203V72.5603C402.954 72.6438 402.882 72.7151 402.798 72.7701C402.713 72.8251 402.619 72.8625 402.52 72.8803C402.246 72.8981 401.974 72.8204 401.75 72.6603C401.511 72.5213 401.295 72.3459 401.11 72.1403C400.929 71.934 400.774 71.7055 400.65 71.4603C400.402 70.9418 400.273 70.3749 400.27 69.8003L400.15 69.8303ZM402 71.2103C402.102 71.274 402.22 71.3086 402.34 71.3103C402.44 71.3039 402.534 71.2653 402.61 71.2003C402.699 71.1287 402.762 71.0306 402.79 70.9203C402.842 70.7796 402.865 70.6301 402.86 70.4803L402.1 70.2203C401.985 70.1736 401.856 70.1736 401.74 70.2203C401.69 70.256 401.651 70.3046 401.626 70.361C401.601 70.4173 401.592 70.4793 401.6 70.5403C401.596 70.6786 401.634 70.8148 401.71 70.9303C401.78 71.0481 401.88 71.1448 402 71.2103Z" fill="#FAFAFA"/>
<path d="M407 71.9301C406.989 72.0732 406.989 72.217 407 72.3601C406.989 72.5132 406.989 72.6669 407 72.8201C407.01 73.1193 407.085 73.4127 407.22 73.6801C407.336 73.924 407.52 74.1291 407.75 74.2701C407.87 74.3537 408.014 74.3959 408.16 74.3901C408.212 74.3729 408.26 74.3454 408.301 74.3094C408.342 74.2733 408.376 74.2293 408.4 74.1801C408.425 74.1366 408.455 74.0963 408.49 74.0601C408.511 74.043 408.538 74.0338 408.565 74.0338C408.592 74.0338 408.619 74.043 408.64 74.0601L409.72 74.6801C409.79 74.731 409.846 74.8002 409.88 74.8801C409.929 74.9647 409.95 75.0627 409.94 75.1601C409.928 75.3401 409.894 75.518 409.84 75.6901C409.774 75.9097 409.653 76.1091 409.49 76.2701C409.305 76.4389 409.069 76.541 408.82 76.5601C408.438 76.562 408.065 76.4468 407.75 76.2301C407.427 76.0376 407.133 75.7983 406.88 75.5201C406.608 75.2156 406.373 74.8799 406.18 74.5201C405.976 74.1427 405.815 73.7436 405.7 73.3301C405.586 72.8955 405.522 72.4492 405.51 72.0001C405.51 71.8701 405.51 71.7001 405.51 71.4901C405.51 71.2801 405.51 71.1101 405.51 70.9901C405.51 70.612 405.575 70.2368 405.7 69.8801C405.795 69.6249 405.962 69.4026 406.18 69.2401C406.385 69.0999 406.633 69.0362 406.88 69.0601C407.187 69.094 407.484 69.1928 407.75 69.3501C408.16 69.5847 408.523 69.8932 408.82 70.2601C409.294 70.8465 409.635 71.5289 409.82 72.2601C409.871 72.477 409.905 72.6977 409.92 72.9201C409.928 72.9558 409.927 72.993 409.917 73.0281C409.906 73.0632 409.887 73.0949 409.86 73.1201C409.85 73.131 409.837 73.1397 409.824 73.1456C409.81 73.1515 409.795 73.1546 409.78 73.1546C409.765 73.1546 409.75 73.1515 409.736 73.1456C409.723 73.1397 409.71 73.131 409.7 73.1201L408.62 72.5001C408.558 72.4596 408.506 72.4047 408.47 72.3401L408.38 72.1101C408.324 71.939 408.244 71.7772 408.14 71.6301C408.029 71.4832 407.89 71.3607 407.73 71.2701C407.51 71.1501 407.33 71.1401 407.2 71.2701C407.12 71.3586 407.061 71.4636 407.026 71.5777C406.992 71.6918 406.983 71.8121 407 71.9301Z" fill="#FAFAFA"/>
<path d="M412.57 74.3203L413.66 73.1203C413.695 73.0892 413.736 73.0654 413.78 73.0503C413.811 73.0345 413.845 73.0263 413.88 73.0263C413.915 73.0263 413.949 73.0345 413.98 73.0503L415.19 73.7503C415.257 73.7894 415.31 73.849 415.34 73.9203C415.372 73.9999 415.389 74.0846 415.39 74.1703C415.395 74.2034 415.395 74.2372 415.39 74.2703C415.371 74.3094 415.344 74.3436 415.31 74.3703L413.84 76.0403L415.58 80.0403C415.603 80.0992 415.623 80.1593 415.64 80.2203C415.646 80.2568 415.646 80.2939 415.64 80.3303C415.644 80.3644 415.64 80.3989 415.63 80.4316C415.619 80.4642 415.602 80.4945 415.58 80.5203C415.56 80.535 415.535 80.5429 415.51 80.5429C415.485 80.5429 415.46 80.535 415.44 80.5203L414.21 79.8003C414.131 79.7606 414.062 79.7023 414.01 79.6303C413.955 79.5552 413.908 79.4748 413.87 79.3903L412.56 76.3903V78.5403C412.564 78.5768 412.56 78.6138 412.548 78.6485C412.536 78.6831 412.516 78.7146 412.49 78.7403C412.47 78.7593 412.443 78.7699 412.415 78.7699C412.387 78.7699 412.36 78.7593 412.34 78.7403L411.34 78.1403C411.267 78.0961 411.211 78.0294 411.18 77.9503C411.138 77.8627 411.114 77.7674 411.11 77.6703V69.3403C411.106 69.2671 411.131 69.1952 411.18 69.1403C411.203 69.1225 411.231 69.1128 411.26 69.1128C411.289 69.1128 411.317 69.1225 411.34 69.1403L412.34 69.7403C412.408 69.7876 412.46 69.8536 412.49 69.9303C412.535 70.0167 412.559 70.1127 412.56 70.2103L412.57 74.3203Z" fill="#FAFAFA"/>
<path d="M418.05 79.0004C418.054 79.0368 418.05 79.0738 418.038 79.1085C418.026 79.1432 418.006 79.1746 417.98 79.2004C417.98 79.2004 417.89 79.2004 417.83 79.2004L416.83 78.6004C416.755 78.5587 416.698 78.4911 416.67 78.4104C416.627 78.3231 416.603 78.2276 416.6 78.1304V72.6404C416.595 72.5639 416.62 72.4884 416.67 72.4304C416.693 72.4125 416.721 72.4028 416.75 72.4028C416.779 72.4028 416.807 72.4125 416.83 72.4304L417.83 73.0304C417.898 73.0776 417.95 73.1437 417.98 73.2204C418.025 73.3068 418.049 73.4028 418.05 73.5004V79.0004ZM418.05 81.7304C418.054 81.7683 418.05 81.8067 418.038 81.8429C418.026 81.8791 418.006 81.9123 417.98 81.9404C417.959 81.9574 417.932 81.9667 417.905 81.9667C417.878 81.9667 417.851 81.9574 417.83 81.9404L416.83 81.3404C416.757 81.292 416.701 81.2221 416.67 81.1404C416.627 81.0531 416.603 80.9576 416.6 80.8604V79.5604C416.596 79.4871 416.621 79.4153 416.67 79.3604C416.692 79.3407 416.721 79.3298 416.75 79.3298C416.78 79.3298 416.808 79.3407 416.83 79.3604L417.83 79.9604C417.899 80.0057 417.952 80.0724 417.98 80.1504C418.027 80.2363 418.051 80.3326 418.05 80.4304V81.7304Z" fill="#FAFAFA"/>
<path d="M318.36 89.34C318.327 89.123 318.24 88.9177 318.108 88.743C317.975 88.5683 317.8 88.4297 317.6 88.34C317.023 88.049 316.386 87.8975 315.74 87.8975C315.094 87.8975 314.457 88.049 313.88 88.34C313.679 88.4299 313.503 88.5683 313.369 88.7429C313.234 88.9174 313.145 89.1226 313.11 89.34V240.34C313.11 241.16 314.28 241.83 315.74 241.83C317.2 241.83 318.36 241.16 318.36 240.34V89.34Z" fill="#37474F"/>
<path d="M315.73 58.89C317.486 58.89 318.91 58.0842 318.91 57.09C318.91 56.0959 317.486 55.29 315.73 55.29C313.974 55.29 312.55 56.0959 312.55 57.09C312.55 58.0842 313.974 58.89 315.73 58.89Z" fill="#455A64"/>
<path d="M344.4 127.29L338.15 116.46L296.58 92.48L293.44 94.3V108.73L335 132.71L338.21 130.94L344.4 127.29Z" fill="#407BFF"/>
<path d="M293.44 94.3003L335 118.28L341.26 129.1L335 132.71L293.44 108.73V94.3003Z" fill="#407BFF"/>
<path opacity="0.4" d="M338.15 116.46L335 118.28L293.44 94.3L296.58 92.48L338.15 116.46Z" fill="white"/>
<path opacity="0.1" d="M335 118.28L338.15 116.46L344.4 127.29L341.27 129.13L335 118.28Z" fill="black"/>
<path d="M341.39 78.6203C341.376 77.2206 341.015 75.8462 340.34 74.6203C336 66.1336 331.667 57.6269 327.34 49.1003C324.94 44.3803 322.543 39.6569 320.15 34.9303C320.005 34.5448 319.786 34.1917 319.505 33.8914C319.223 33.591 318.885 33.3493 318.51 33.1803C318.39 33.1389 318.262 33.1246 318.136 33.1384C318.01 33.1523 317.888 33.1939 317.78 33.2603C317.61 33.3603 315.97 34.3603 315.78 34.4403C315.58 34.5449 315.395 34.6761 315.23 34.8303L305.63 42.6703L295.01 51.3303C294.765 51.535 294.573 51.7951 294.45 52.0891C294.326 52.3831 294.275 52.7024 294.3 53.0203C294.3 61.4936 294.3 69.9569 294.3 78.4103C294.256 79.2581 294.445 80.1018 294.844 80.8506C295.244 81.5994 295.841 82.2251 296.57 82.6603L314.19 92.8303L318.75 95.4603L337.14 106C337.34 106.152 337.573 106.253 337.82 106.295C338.068 106.337 338.321 106.318 338.56 106.24C338.71 106.16 340.21 105.24 340.56 105.05C340.732 104.969 340.878 104.841 340.98 104.68C341.292 104.102 341.424 103.444 341.36 102.79C341.37 94.7403 341.35 86.6603 341.39 78.6203Z" fill="#407BFF"/>
<path opacity="0.5" d="M341 76.1902C340.825 75.6363 340.604 75.0978 340.34 74.5802C336 66.0936 331.667 57.5869 327.34 49.0602C324.94 44.3402 322.543 39.6169 320.15 34.8902C320.005 34.5048 319.786 34.1517 319.505 33.8513C319.223 33.551 318.885 33.3093 318.51 33.1402C318.39 33.0988 318.262 33.0845 318.136 33.0984C318.01 33.1122 317.888 33.1538 317.78 33.2202C317.61 33.3202 315.97 34.3202 315.78 34.4002C315.58 34.5049 315.395 34.6361 315.23 34.7902L305.63 42.6302L295.01 51.2902C294.765 51.4949 294.573 51.7551 294.45 52.0491C294.326 52.3431 294.275 52.6623 294.3 52.9802C294.3 61.4536 294.3 69.9169 294.3 78.3702C294.256 79.2181 294.445 80.0617 294.844 80.8106C295.244 81.5594 295.841 82.1851 296.57 82.6202L314.19 92.7902L313.19 92.2202L341 76.1902Z" fill="white"/>
<path opacity="0.2" d="M341.39 78.6204C341.387 78.2185 341.354 77.8173 341.29 77.4204C341.295 77.3906 341.295 77.3602 341.29 77.3304C341.229 76.9442 341.138 76.5632 341.02 76.1904L313.27 92.1904L314.27 92.7604L318.83 95.3904L337.14 106C337.469 106.217 337.856 106.332 338.25 106.33C338.357 106.316 338.462 106.285 338.56 106.24L339.49 105.68L339.82 105.48C340.14 105.29 340.44 105.11 340.57 105.05L340.68 104.98C340.802 104.902 340.908 104.8 340.99 104.68C341.302 104.102 341.434 103.444 341.37 102.79C341.37 94.7404 341.35 86.6604 341.39 78.6204Z" fill="white"/>
<path d="M339.35 79.81C339.356 78.4141 339.012 77.0389 338.35 75.81C334.01 67.3233 329.677 58.82 325.35 50.3C322.95 45.5733 320.553 40.8467 318.16 36.12C317.865 35.3432 317.276 34.7142 316.52 34.37C315.99 34.21 315.65 34.54 315.29 34.83L305.69 42.67L295.07 51.33C294.825 51.5347 294.633 51.7949 294.51 52.0889C294.386 52.3828 294.335 52.7021 294.36 53.02C294.36 61.4933 294.36 69.9567 294.36 78.41C294.316 79.2578 294.505 80.1015 294.905 80.8503C295.304 81.5992 295.901 82.2248 296.63 82.66L314.25 92.83L318.81 95.46L337.14 106C337.9 106.43 338.53 106.49 338.96 105.87C339.268 105.29 339.4 104.634 339.34 103.98C339.333 95.9267 339.337 87.87 339.35 79.81Z" fill="#407BFF"/>
<path d="M316.78 92.0502L298.57 81.5402C297.781 81.0894 297.138 80.4224 296.717 79.618C296.295 78.8135 296.112 77.9052 296.19 77.0002V54.8902C296.145 54.5017 296.187 54.108 296.313 53.7378C296.439 53.3676 296.647 53.0302 296.92 52.7502C303.08 47.7502 309.23 42.7502 315.37 37.7502C316.37 36.9102 317.29 37.4202 318.37 39.4702C324.51 51.5702 330.657 63.6769 336.81 75.7902C337.276 76.665 337.527 77.6389 337.54 78.6302C337.54 86.1236 337.54 93.6102 337.54 101.09C337.54 102.98 336.71 103.56 335.27 102.73C329.09 99.1702 322.927 95.6102 316.78 92.0502ZM316.83 91.5202L335.15 102.1C336.46 102.85 337.07 102.4 337.07 100.65C337.07 93.2902 337.07 85.9302 337.07 78.5802C337.06 77.5979 336.81 76.633 336.34 75.7702C330.187 63.6702 324.043 51.5669 317.91 39.4602C317.17 37.9902 316.5 37.6202 315.74 38.2302C309.613 43.2302 303.48 48.2302 297.34 53.2302C297.072 53.4849 296.866 53.7976 296.738 54.1443C296.609 54.491 296.562 54.8625 296.6 55.2302C296.6 62.5702 296.6 69.9002 296.6 77.2302C296.519 77.9818 296.662 78.7404 297.011 79.411C297.36 80.0817 297.898 80.6345 298.56 81.0002L316.83 91.5202Z" fill="white"/>
<path d="M323.27 78.2801C323.05 79.3601 322.83 80.2801 322.66 81.2801C322.619 81.581 322.478 81.8593 322.26 82.0701C321.643 82.6071 321.119 83.2423 320.71 83.9501C320.563 84.1934 320.493 84.4753 320.509 84.7591C320.525 85.0428 320.626 85.3151 320.8 85.5401C320.888 85.6648 320.947 85.8081 320.971 85.9589C320.995 86.1097 320.984 86.2641 320.94 86.4101C320.81 86.6201 320.58 86.3101 320.4 86.1301C318.84 84.6301 318.65 83.9401 319.47 82.5301C319.94 81.7728 320.45 81.0418 321 80.3401C321.12 80.1411 321.2 79.9202 321.234 79.6902C321.268 79.4602 321.257 79.2256 321.2 79.0001C321.039 77.9078 320.972 76.8038 321 75.7001C321.026 75.5158 321.006 75.3279 320.941 75.1533C320.877 74.9787 320.77 74.8229 320.63 74.7001C320.18 74.2501 319.74 73.7801 319.29 73.3301C319.183 73.2491 319.102 73.1391 319.056 73.0133C319.01 72.8874 319.001 72.751 319.03 72.6201C319.14 72.1301 319.19 71.6201 319.28 71.0701C319.33 70.8201 319.28 70.3701 319.68 70.7701C319.81 70.9001 319.84 70.7701 319.85 70.6201L319.94 68.8701C319.943 68.7872 319.928 68.7046 319.895 68.6284C319.862 68.5522 319.813 68.4844 319.75 68.4301C318.24 66.9801 317.32 64.7601 316.13 62.9001C315.984 62.5906 315.784 62.3096 315.54 62.0701C315.39 63.3601 315.22 64.6201 315.09 65.9201C315.1 66.2287 315.151 66.5345 315.24 66.8301C315.813 69.4235 316.386 72.0135 316.96 74.6001C317.07 75.0078 317.087 75.435 317.01 75.8501C316.61 77.7601 316.25 79.7001 315.85 81.6001C315.804 81.8703 315.822 82.1472 315.902 82.4093C315.982 82.6713 316.122 82.9112 316.31 83.1101C317.15 84.1101 317.37 84.6601 317.23 85.3201C317.23 85.3201 316.29 84.6501 315.88 84.3201C314.88 83.4801 314.05 82.8501 314.05 82.8501C314.05 82.8501 314.17 81.8501 314.27 80.8501C314.43 79.0501 314.62 77.2601 314.81 75.4701C314.881 74.8019 314.843 74.1266 314.7 73.4701C314.4 72.1101 314.14 70.7501 313.83 69.1901C313.51 70.7401 313.22 72.1201 312.96 73.5301C312.897 74.057 312.657 74.5469 312.28 74.9201C311.175 75.958 310.223 77.1464 309.45 78.4501C309.67 78.9808 309.92 79.4984 310.2 80.0001C310.356 80.2822 310.442 80.5978 310.45 80.9201C310.45 81.3301 310.39 81.6001 309.96 81.1901C309.36 80.5901 307.86 78.5901 307.32 77.8401C307.42 77.3401 307.79 77.0401 307.86 76.7401C308.7 75.4401 309.07 74.6401 309.86 73.5601C310.65 72.4801 310.93 70.7301 310.65 68.5601C310.51 67.4301 310.48 66.3201 310.44 65.2301C310.443 65.0217 310.402 64.8149 310.319 64.6235C310.236 64.4321 310.114 64.2605 309.96 64.1201C309.24 63.4201 308.55 62.6501 307.83 61.9501C307.703 61.8554 307.607 61.7246 307.556 61.5748C307.504 61.425 307.498 61.2631 307.54 61.1101C307.7 60.2301 307.83 59.3201 307.96 58.4101C307.96 58.0601 308.06 57.7801 308.43 58.2601C308.69 58.5801 308.8 58.4801 308.77 58.1101C308.64 56.0994 309.229 54.1079 310.43 52.4901C310.635 52.1685 310.922 51.9066 311.261 51.7311C311.599 51.5555 311.979 51.4724 312.36 51.4901C312.492 51.5035 312.62 51.5431 312.737 51.6067C312.854 51.6702 312.957 51.7564 313.04 51.8601C313.54 52.3301 314.04 52.8601 314.52 53.2401C315.15 53.7935 315.582 54.5381 315.75 55.3601C316.174 56.8608 316.482 58.392 316.67 59.9401C316.955 61.9996 317.757 63.9535 319 65.6201C319.37 66.1701 319.8 66.6201 320.17 67.2101C320.43 67.5901 320.55 67.6501 320.69 67.3401C320.823 66.9824 321.055 66.6701 321.36 66.4401C321.9 66.0801 322.46 66.1001 323.27 66.8401C324.146 67.616 324.713 68.6807 324.87 69.8401C324.98 70.4601 325.15 71.1101 325.2 71.7101C325.411 73.3857 326.106 74.9633 327.2 76.2501C327.553 76.6774 327.861 77.1398 328.12 77.6301C328.26 77.9301 328.33 78.2001 328.19 78.3801C328.05 78.5601 327.91 78.3001 327.77 78.1401C326.967 77.3717 326.292 76.4806 325.77 75.5001C325.41 74.7901 324.97 74.1201 324.47 73.2701C324.35 74.7001 323.92 75.8001 324.47 77.4901C324.47 77.4901 324.47 77.4901 324.47 77.5701C325.509 80.3651 325.611 83.4223 324.76 86.2801C324.649 86.5331 324.626 86.8154 324.693 87.0831C324.76 87.3508 324.913 87.5889 325.13 87.7601C325.259 87.8758 325.36 88.0201 325.424 88.1815C325.489 88.3429 325.514 88.5171 325.5 88.6901C325.42 89.0201 325.15 88.7601 324.94 88.6901C323.57 87.9301 323.48 87.7501 323.61 86.0201C323.647 85.1559 323.734 84.2945 323.87 83.4401C324.16 81.9101 323.66 80.1601 323.27 78.2801ZM311.15 56.5401C309.81 56.2901 309.64 57.6201 309.64 59.1801C309.64 59.8501 310.12 59.9301 310.36 60.2901C310.6 60.6501 310.55 60.3501 310.58 60.2001C310.77 59.0001 311 57.7301 311.15 56.5401ZM321.46 69.6301C320.55 69.4501 320.46 70.3301 320.46 71.3101C320.461 71.4618 320.5 71.6107 320.573 71.7435C320.647 71.8762 320.752 71.9885 320.88 72.0701C321.12 72.3001 321.1 72.0701 321.13 71.8401C321.22 71.1101 321.34 70.3901 321.46 69.6301Z" fill="white"/>
<path d="M316.52 50.62C316.52 52.12 315.52 52.79 314.41 52.11C313.796 51.6648 313.292 51.086 312.935 50.4173C312.578 49.7486 312.378 49.0075 312.35 48.25C312.28 46.61 313.27 45.81 314.47 46.54C315.107 47.0118 315.625 47.6269 315.981 48.3356C316.337 49.0443 316.522 49.8268 316.52 50.62Z" fill="white"/>
<path d="M325.1 65.83C325 66.53 324.57 66.89 324.01 66.73C323.464 66.4487 323.011 66.0162 322.704 65.4843C322.397 64.9523 322.25 64.3434 322.28 63.73C322.34 62.92 322.84 62.5 323.47 62.73C324.01 63.0362 324.451 63.4912 324.74 64.0408C325.029 64.5904 325.154 65.2115 325.1 65.83Z" fill="white"/>
<path d="M328.23 95.0002L305.49 81.8702V80.7002L328.23 93.8302V95.0002Z" fill="white"/>
<path d="M333.76 84.6002L325.57 79.8702V78.7002L333.76 83.4302V84.6002Z" fill="white"/>
<path d="M320.42 76.9003L317.51 75.2203V74.0503L320.42 75.7303V76.9003Z" fill="white"/>
<path d="M309.88 70.8103L299.82 65.0003V63.8403L309.88 69.6403V70.8103Z" fill="white"/>
<path d="M81.69 60.0602L74.42 64.2602C74.42 63.9302 74.48 63.6102 74.48 63.2602V61.1602C74.48 57.4102 71.84 55.8902 68.6 57.7602C67.1997 58.616 66.0021 59.7659 65.09 61.1302C64.56 56.4202 60.86 54.6602 56.37 57.2502C51.51 60.0602 47.57 66.8802 47.57 72.4902V75.6402C47.5377 76.8982 47.7942 78.1468 48.32 79.2902L42.32 82.7802C41.3557 83.3956 40.5517 84.2317 39.9744 85.2194C39.3971 86.2071 39.0631 87.3179 39 88.4602C39 90.5402 40.46 91.3802 42.26 90.3402L81.69 67.5902C82.6485 66.9765 83.4481 66.1446 84.0234 65.1626C84.5987 64.1806 84.9334 63.0763 85 61.9402C85 59.8602 83.49 59.0002 81.69 60.0602Z" fill="#BCE2F0"/>
<path d="M130.81 69.5002L126.81 71.0402V62.2002C126.81 55.2002 121.22 53.5202 115.15 57.0202C109.09 60.5202 104.15 69.0202 104.15 76.0202V77.3002C103.296 77.0339 102.392 76.9666 101.508 77.1036C100.624 77.2405 99.7835 77.578 99.0501 78.0902C96.7475 79.5889 94.8311 81.6098 93.4567 83.9886C92.0822 86.3674 91.2885 89.0369 91.1401 91.7802V92.3602L85.5501 95.5902C84.0357 96.5757 82.7749 97.904 81.8697 99.4677C80.9645 101.031 80.4405 102.786 80.3401 104.59C80.3401 107.91 82.6701 109.26 85.5501 107.59L130.8 81.4602C132.314 80.4748 133.575 79.1464 134.481 77.5828C135.386 76.0191 135.91 74.2642 136.01 72.4602C136 69.1802 133.69 67.8402 130.81 69.5002Z" fill="#BCE2F0"/>
<path d="M195 151.5C191.046 147.483 187.808 146.456 180.5 146.5C185.478 148.503 190.764 154.067 194.5 164C195.299 168.855 194.63 172.101 192 176L197 182.5L207 172.5C202.845 164.256 200.342 159.65 195 151.5Z" fill="white"/>
<path d="M306.226 104.499C306.79 104.806 307.228 105.166 307.539 105.578C307.855 105.994 308.032 106.436 308.068 106.904C308.105 107.372 307.995 107.843 307.737 108.316C307.483 108.784 307.148 109.132 306.732 109.362C306.319 109.586 305.852 109.679 305.331 109.639C304.819 109.597 304.28 109.422 303.715 109.116L302.431 108.418L301.476 110.175L300 109.373L303.466 103L306.226 104.499ZM304.287 107.869C304.73 108.11 305.119 108.199 305.452 108.136C305.788 108.067 306.052 107.857 306.243 107.505C306.438 107.147 306.471 106.811 306.343 106.497C306.218 106.178 305.933 105.898 305.49 105.657L304.288 105.003L303.085 107.216L304.287 107.869Z" fill="white"/>
<path d="M312.808 108.075C313.373 108.382 313.811 108.742 314.121 109.154C314.438 109.57 314.615 110.012 314.651 110.48C314.688 110.948 314.577 111.419 314.32 111.892C314.066 112.36 313.73 112.709 313.314 112.938C312.902 113.162 312.434 113.255 311.913 113.215C311.401 113.173 310.863 112.998 310.298 112.692L309.014 111.994L308.058 113.751L306.583 112.949L310.048 106.576L312.808 108.075ZM310.87 111.445C311.313 111.686 311.701 111.775 312.034 111.712C312.371 111.643 312.634 111.433 312.826 111.081C313.021 110.723 313.054 110.387 312.925 110.073C312.8 109.754 312.516 109.474 312.073 109.233L310.87 108.58L309.667 110.792L310.87 111.445Z" fill="white"/>
<path d="M316.631 110.152L319.527 111.726C320.22 112.102 320.757 112.567 321.14 113.121C321.533 113.672 321.744 114.267 321.775 114.905C321.812 115.546 321.657 116.185 321.311 116.823C320.964 117.46 320.512 117.938 319.953 118.255C319.401 118.577 318.785 118.726 318.106 118.702C317.435 118.676 316.754 118.475 316.062 118.099L313.165 116.525L316.631 110.152ZM316.647 116.849C317.285 117.195 317.888 117.294 318.456 117.147C319.033 116.997 319.487 116.618 319.817 116.011C320.147 115.404 320.216 114.821 320.025 114.261C319.843 113.698 319.434 113.244 318.796 112.897L317.448 112.165L315.299 116.116L316.647 116.849Z" fill="white"/>
<path d="M327.175 119.843C327.476 120.157 327.656 120.506 327.714 120.891C327.775 121.27 327.699 121.657 327.484 122.052C327.181 122.61 326.728 122.922 326.125 122.988C325.532 123.052 324.82 122.857 323.988 122.405L320.691 120.614L324.156 114.241L327.271 115.933C328.049 116.355 328.563 116.827 328.814 117.349C329.072 117.874 329.062 118.391 328.784 118.901C328.616 119.211 328.39 119.446 328.106 119.606C327.828 119.77 327.518 119.849 327.175 119.843ZM325.019 116.148L324.202 117.65L325.668 118.447C326.033 118.645 326.344 118.731 326.601 118.706C326.859 118.681 327.055 118.544 327.191 118.295C327.326 118.046 327.332 117.81 327.21 117.586C327.091 117.357 326.85 117.143 326.485 116.945L325.019 116.148ZM324.483 121.235C324.871 121.446 325.198 121.541 325.461 121.519C325.731 121.5 325.938 121.357 326.084 121.09C326.371 120.562 326.123 120.086 325.339 119.66L323.618 118.725L322.761 120.3L324.483 121.235Z" fill="white"/>
</svg>
